<?xml version="1.0" ?><!DOCTYPE svg  PUBLIC '-//W3C//DTD SVG 1.1//EN'  'http://www.w3.org/Graphics/SVG/1.1/DTD/svg11.dtd'><svg enable-background="new 0 0 64 64" height="64px" id="Layer_1" version="1.1" viewBox="0 0 64 64" width="64px" xml:space="preserve" xmlns="http://www.w3.org/2000/svg" xmlns:xlink="http://www.w3.org/1999/xlink"><g id="Ripple_XRP"><g><g><g><g><g><g><g><path d="M32,59C17.112,59,5,46.888,5,32S17.112,5,32,5s27,12.112,27,27S46.888,59,32,59z M32,6          C17.663,6,6,17.663,6,32s11.663,26,26,26s26-11.663,26-26S46.337,6,32,6z" fill="#37474F"/></g></g></g></g><g><g><g><g><path d="M32,55C19.317,55,9,44.683,9,32S19.317,9,32,9s23,10.317,23,23S44.683,55,32,55z M32,10          c-12.131,0-22,9.869-22,22s9.869,22,22,22s22-9.869,22-22S44.131,10,32,10z" fill="#37474F"/></g></g></g></g></g></g></g><g><g><g><g><path d="M37.697,47.687c-1.186,0-2.37-0.328-3.427-0.949c-2.111-1.234-3.424-3.515-3.424-5.952       c0-1.207,0.348-2.47,1.006-3.651c0.477-0.96,0.14-2.196-0.763-2.736c-0.343-0.196-0.69-0.298-1.025-0.298       c-0.857,0-1.467,0.665-1.692,1.059c-0.671,1.221-1.592,2.183-2.657,2.774c-2.092,1.229-4.73,1.233-6.842-0.005       c-2.11-1.241-3.421-3.524-3.421-5.958c0-2.437,1.311-4.72,3.421-5.959s4.739-1.241,6.854,0.001       c1.255,0.83,2.158,1.947,2.731,2.717c0.599,0.993,1.853,1.348,2.751,0.811c0.613-0.309,0.946-0.739,1.025-1.3       c0.09-0.639-0.162-1.23-0.274-1.455c-0.746-1.335-1.113-2.528-1.113-3.631c0-2.432,1.313-4.713,3.426-5.954       c0.912-0.569,2.118-0.886,3.386-0.886c1.331,0,2.553,0.319,3.479,0.899c2.099,1.229,3.411,3.511,3.411,5.946       c0,2.432-1.312,4.712-3.424,5.952c-1.039,0.578-2.378,0.893-3.78,0.893c-1.14,0-1.967,0.827-1.967,1.966       c0,1.556,1.286,1.967,1.967,1.967c1.465,0,2.698,0.29,3.771,0.887c2.122,1.246,3.434,3.528,3.434,5.962       c0,2.432-1.313,4.713-3.425,5.953C40.068,47.358,38.883,47.687,37.697,47.687z M30.064,33.1c0.512,0,1.026,0.146,1.53,0.436       c1.371,0.819,1.869,2.603,1.142,4.064c-0.586,1.054-0.89,2.148-0.89,3.186c0,2.083,1.123,4.033,2.93,5.09       c1.81,1.063,4.038,1.061,5.84,0.001c1.809-1.062,2.932-3.013,2.932-5.091c0-2.08-1.123-4.032-2.93-5.095       c-0.91-0.505-1.984-0.754-3.274-0.754c-1.475,0-2.967-1.02-2.967-2.967c0-1.69,1.275-2.966,2.967-2.966       c1.235,0,2.401-0.271,3.284-0.761c1.797-1.055,2.92-3.006,2.92-5.084c0-2.082-1.122-4.033-2.93-5.091       c-0.781-0.489-1.814-0.755-2.922-0.755c0,0,0,0-0.001,0c-1.104,0-2.15,0.271-2.905,0.741c-1.82,1.069-2.943,3.021-2.943,5.099       c0,0.927,0.326,1.962,0.997,3.163c0.337,0.672,0.472,1.416,0.381,2.063c-0.087,0.622-0.425,1.48-1.535,2.036       c-0.404,0.244-0.908,0.383-1.423,0.383c-1.069,0-2.08-0.58-2.639-1.514c-0.823-1.102-1.581-1.862-2.432-2.425       c-1.761-1.034-4.013-1.046-5.816,0.014c-1.807,1.061-2.928,3.014-2.928,5.097c0,2.081,1.122,4.033,2.928,5.096       c1.806,1.059,4.035,1.059,5.839,0c0.911-0.508,1.696-1.334,2.282-2.396C27.917,33.941,28.834,33.1,30.064,33.1z" fill="#37474F"/></g></g></g></g></g></svg>