<svg width="556" height="509" viewBox="0 0 556 509" fill="none" xmlns="http://www.w3.org/2000/svg">
<path d="M124.426 288.993C109.713 288.993 97.6194 300.056 96.007 314.337C81.7638 311.185 68.4612 305.554 56.5023 297.977C65.4379 286.781 64.6989 270.422 54.3524 260.03C43.9388 249.638 27.5457 248.967 16.3259 257.951C8.80119 246.017 3.15767 232.675 -6.6643e-06 218.461C14.3103 216.852 25.3286 204.851 25.3286 190.168C25.3286 175.485 14.3103 163.417 -4.1879e-06 161.808C3.22486 147.594 8.8012 134.252 16.3259 122.318C27.5457 131.302 43.9388 130.632 54.3524 120.24C64.7661 109.848 65.4379 93.4887 56.4352 82.2921C68.3941 74.783 81.7638 69.2182 96.007 66C97.6194 80.2807 109.713 91.2762 124.426 91.2762C139.14 91.2762 151.166 80.2807 152.778 66C167.021 69.1511 180.391 74.783 192.35 82.2921C183.347 93.4887 184.019 109.848 194.433 120.24C204.846 130.565 221.239 131.302 232.459 122.385C240.051 134.319 245.695 147.594 248.852 161.808C234.542 163.417 223.456 175.485 223.456 190.168C223.456 204.851 234.542 216.852 248.852 218.461C245.695 232.675 240.051 245.95 232.526 257.884C221.306 248.967 204.913 249.638 194.433 260.03C184.019 270.489 183.347 286.848 192.283 298.045C180.324 305.554 167.021 311.185 152.778 314.337C151.166 300.056 139.14 288.993 124.426 288.993ZM187.916 190.168C187.916 155.171 159.497 126.743 124.426 126.743C89.3557 126.743 60.8694 155.171 60.8694 190.168C60.8694 225.166 89.3557 253.593 124.426 253.593C159.497 253.593 187.916 225.166 187.916 190.168Z" fill="#F7F8FA"/>
<path d="M374.151 464.683C371.283 461.792 371.283 457.129 374.151 454.237L410.912 417.615C413.656 414.568 418.364 414.351 421.388 417.086C424.444 419.822 424.662 424.517 421.918 427.532C421.762 427.719 421.575 427.874 421.388 428.061L389.897 459.46L421.419 490.891C424.288 493.782 424.288 498.445 421.419 501.337C420.016 502.736 418.114 503.513 416.15 503.513C414.155 503.513 412.253 502.736 410.85 501.337L374.151 464.683ZM474.393 490.891L506.009 459.46L474.487 428.03C471.587 425.107 471.618 420.413 474.549 417.522C477.48 414.63 482.188 414.661 485.088 417.584L521.849 454.237C524.717 457.129 524.717 461.792 521.849 464.683L485.088 501.337C483.716 502.736 481.814 503.513 479.85 503.513C477.886 503.513 475.984 502.736 474.581 501.337C471.681 498.476 471.65 493.813 474.518 490.891H474.393ZM429.401 499.875L448.608 415.75C449.512 411.77 453.503 409.283 457.494 410.185C461.485 411.086 463.979 415.066 463.075 419.045L443.806 503.171C443.058 506.528 440.065 508.922 436.604 508.953C436.043 509.016 435.481 509.016 434.92 508.953C430.929 508.052 428.435 504.072 429.339 500.093C429.37 500.031 429.37 499.969 429.401 499.875Z" fill="#F7F8FA"/>
<path opacity="0.8" d="M335.41 171.725C333.59 159.368 323.082 149.759 310.114 149.501C297.146 149.243 286.173 158.416 283.867 170.651C275.065 167.305 266.882 162.33 259.855 155.877C269.765 148.255 273.089 134.374 267.052 122.925C261.059 111.57 247.742 106.432 235.818 110.316C234.585 101.507 234.948 92.6341 236.806 84.0924C248.396 88.7775 262.016 84.5491 268.825 73.5901C275.681 62.6086 273.379 48.509 264.019 40.2093C268.404 36.7274 273.249 33.7224 278.507 31.217C281.301 29.8852 284.069 28.7404 286.926 27.7847C288.746 40.1418 299.254 49.7509 312.222 50.0092C325.19 50.2675 336.163 41.0944 338.47 28.8589C347.271 32.2048 355.454 37.1796 362.482 43.6329C352.572 51.2555 349.248 65.136 355.285 76.5854C361.277 87.9403 374.595 93.0783 386.519 89.1941C387.752 98.0026 387.389 106.876 385.531 115.418C373.941 110.733 360.321 114.961 353.512 125.92C346.656 136.901 348.957 151.001 358.318 159.301C353.932 162.783 349.087 165.788 343.83 168.293C341.035 169.625 338.268 170.77 335.41 171.725ZM340.772 85.6476C333.609 70.6165 315.647 64.2697 300.585 71.4475C285.522 78.6254 279.138 96.5741 286.301 111.605C293.464 126.636 311.426 132.983 326.488 125.805C341.551 118.627 347.935 100.679 340.772 85.6476Z" fill="#F7F8FA"/>
<g filter="url(#filter0_dd)">
<rect x="74" y="149" width="422" height="276" rx="8" fill="white"/>
</g>
<path d="M118.46 200.928H109.256V197.064H117.944V193.992H109.256V190.272H118.364V187.2H105.908V204H118.46V200.928ZM132.912 192.372H129.852V193.656C129.084 192.708 127.968 192.06 126.372 192.06C123.168 192.06 120.744 194.688 120.744 198.18C120.744 201.672 123.168 204.3 126.372 204.3C127.968 204.3 129.096 203.652 129.852 202.716V204H132.912V192.372ZM126.948 194.976C128.736 194.976 129.948 196.344 129.948 198.18C129.948 200.016 128.736 201.384 126.948 201.384C125.112 201.384 123.948 199.956 123.948 198.18C123.948 196.404 125.112 194.976 126.948 194.976ZM142.519 192.06C141.091 192.06 139.975 192.552 139.243 193.644V192.372H136.207V204H139.339V197.664C139.339 195.936 140.335 195.048 141.787 195.048C142.423 195.048 143.167 195.192 143.683 195.42L144.151 192.312C143.719 192.156 143.191 192.06 142.519 192.06ZM152.753 192.06C151.433 192.06 150.161 192.504 149.333 193.74V192.372H146.285V204H149.417V197.628C149.417 195.876 150.533 195 151.877 195C153.305 195 154.145 195.924 154.145 197.604V204H157.277V196.596C157.277 193.896 155.393 192.06 152.753 192.06ZM169.526 186.72H166.394V204H169.526V186.72ZM175.948 192.372H172.816V204H175.948V192.372ZM174.364 186.552C173.236 186.552 172.372 187.44 172.372 188.568C172.372 189.696 173.236 190.56 174.364 190.56C175.492 190.56 176.368 189.696 176.368 188.568C176.368 187.44 175.492 186.552 174.364 186.552ZM182.37 186.72H179.238V204H182.37V199.296H183.426L186.774 204H190.626L186.006 197.844L190.59 192.372H186.75L183.474 196.512H182.37V186.72ZM196.96 192.06C193.48 192.06 191.08 194.556 191.08 198.216C191.08 201.876 193.552 204.3 197.116 204.3C199.072 204.3 200.752 203.748 202.072 202.536L200.236 200.52C199.396 201.228 198.304 201.636 197.296 201.636C195.82 201.636 194.644 200.904 194.308 199.224H202.552C202.588 198.96 202.612 198.528 202.612 198.168C202.6 194.544 200.308 192.06 196.96 192.06ZM196.936 194.76C198.28 194.76 199.18 195.6 199.468 197.088H194.32C194.596 195.648 195.46 194.76 196.936 194.76ZM219.432 192.372H215.22V188.916H212.088V192.372H209.844V195.156H212.088V199.656C212.088 202.668 213.564 204.3 216.444 204.3C218.1 204.3 219.276 203.772 220.296 203.076L219.144 200.628C218.508 201.012 217.704 201.384 216.96 201.384C215.988 201.384 215.22 200.856 215.22 199.404V195.156H219.432V192.372ZM225.331 186.708H222.199V204H225.331V197.628C225.331 195.876 226.447 195 227.791 195C229.219 195 230.059 195.924 230.059 197.604V204H233.191V196.596C233.191 193.896 231.307 192.06 228.667 192.06C227.395 192.06 226.159 192.468 225.331 193.62V186.708ZM241.538 192.06C238.058 192.06 235.658 194.556 235.658 198.216C235.658 201.876 238.13 204.3 241.694 204.3C243.65 204.3 245.33 203.748 246.65 202.536L244.814 200.52C243.974 201.228 242.882 201.636 241.874 201.636C240.398 201.636 239.222 200.904 238.886 199.224H247.13C247.166 198.96 247.19 198.528 247.19 198.168C247.178 194.544 244.886 192.06 241.538 192.06ZM241.514 194.76C242.858 194.76 243.758 195.6 244.046 197.088H238.898C239.174 195.648 240.038 194.76 241.514 194.76ZM262.195 192.06C260.635 192.06 259.543 192.672 258.787 193.584V186.72H255.667V204H258.727V202.716C259.483 203.652 260.599 204.3 262.207 204.3C265.411 204.3 267.835 201.672 267.835 198.18C267.835 194.688 265.411 192.06 262.195 192.06ZM261.619 194.976C263.467 194.976 264.619 196.404 264.619 198.18C264.619 199.956 263.467 201.384 261.619 201.384C259.843 201.384 258.631 200.016 258.631 198.18C258.631 196.344 259.843 194.976 261.619 194.976ZM275.546 192.06C272.066 192.06 269.666 194.556 269.666 198.216C269.666 201.876 272.138 204.3 275.702 204.3C277.658 204.3 279.338 203.748 280.658 202.536L278.822 200.52C277.982 201.228 276.89 201.636 275.882 201.636C274.406 201.636 273.23 200.904 272.894 199.224H281.138C281.174 198.96 281.198 198.528 281.198 198.168C281.186 194.544 278.894 192.06 275.546 192.06ZM275.522 194.76C276.866 194.76 277.766 195.6 278.054 197.088H272.906C273.182 195.648 274.046 194.76 275.522 194.76ZM293.048 193.176C291.5 192.42 290.048 192.072 288.188 192.072C285.128 192.072 283.28 193.488 283.28 195.876C283.28 197.856 284.612 199.032 287.3 199.404L288.248 199.536C289.592 199.728 290.18 200.04 290.18 200.604C290.18 201.288 289.484 201.696 288.032 201.696C286.28 201.696 285.068 201.216 284.072 200.556L282.836 202.932C284.348 204 286.424 204.3 288.008 204.3C291.38 204.3 293.348 202.752 293.348 200.352C293.348 198.384 291.944 197.256 289.424 196.872L288.392 196.716C287.336 196.56 286.496 196.392 286.496 195.72C286.496 195.084 287.096 194.664 288.284 194.664C289.592 194.676 291.068 195.156 291.992 195.612L293.048 193.176ZM304.158 192.372H299.946V188.916H296.814V192.372H294.57V195.156H296.814V199.656C296.814 202.668 298.29 204.3 301.17 204.3C302.826 204.3 304.002 203.772 305.022 203.076L303.87 200.628C303.234 201.012 302.43 201.384 301.686 201.384C300.714 201.384 299.946 200.856 299.946 199.404V195.156H304.158V192.372Z" fill="#5A63AF"/>
<line opacity="0.24" x1="104" y1="236.5" x2="466" y2="236.5" stroke="#5A63AF"/>
<path opacity="0.6" d="M105.431 273.4V286H110.885C113.909 286 115.628 284.812 115.628 282.391C115.628 281.032 114.683 279.952 113.531 279.565C114.584 279.178 115.358 278.161 115.358 276.892C115.358 274.489 113.513 273.4 110.579 273.4H105.431ZM110.759 280.762C112.145 280.762 113.018 281.086 113.018 282.265C113.018 283.471 112.145 283.795 110.759 283.795L107.942 283.786V280.762H110.759ZM110.507 275.614C111.749 275.614 112.739 275.884 112.739 277.072C112.739 278.296 111.767 278.557 110.516 278.557H107.942V275.614H110.507ZM120.045 277.279H117.696V286H120.045V277.279ZM118.857 272.914C118.011 272.914 117.363 273.58 117.363 274.426C117.363 275.272 118.011 275.92 118.857 275.92C119.703 275.92 120.36 275.272 120.36 274.426C120.36 273.58 119.703 272.914 118.857 272.914ZM130.315 277.279H127.84L125.887 283.372L124.024 277.279H121.522L124.474 286H127.138L129.055 280.105L130.99 286H133.672L136.624 277.279H134.167L132.295 283.399L130.315 277.279ZM141.781 277.045C139.171 277.045 137.371 278.917 137.371 281.662C137.371 284.407 139.225 286.225 141.898 286.225C143.365 286.225 144.625 285.811 145.615 284.902L144.238 283.39C143.608 283.921 142.789 284.227 142.033 284.227C140.926 284.227 140.044 283.678 139.792 282.418H145.975C146.002 282.22 146.02 281.896 146.02 281.626C146.011 278.908 144.292 277.045 141.781 277.045ZM141.763 279.07C142.771 279.07 143.446 279.7 143.662 280.816H139.801C140.008 279.736 140.656 279.07 141.763 279.07ZM151.8 277.045C149.19 277.045 147.39 278.917 147.39 281.662C147.39 284.407 149.244 286.225 151.917 286.225C153.384 286.225 154.644 285.811 155.634 284.902L154.257 283.39C153.627 283.921 152.808 284.227 152.052 284.227C150.945 284.227 150.063 283.678 149.811 282.418H155.994C156.021 282.22 156.039 281.896 156.039 281.626C156.03 278.908 154.311 277.045 151.8 277.045ZM151.782 279.07C152.79 279.07 153.465 279.7 153.681 280.816H149.82C150.027 279.736 150.675 279.07 151.782 279.07ZM160.299 273.04H157.95V286H160.299V282.472H161.091L163.602 286H166.491L163.026 281.383L166.464 277.279H163.584L161.127 280.384H160.299V273.04ZM170.16 273.04H167.811V286H170.16V273.04ZM181.466 277.279H178.892L176.57 281.761L174.176 277.279H171.512L175.274 284.146L172.223 289.636H174.797L181.466 277.279ZM191.653 277.045C190.582 277.045 189.745 277.414 189.196 278.233V277.279H186.919V286H189.268V281.248C189.268 279.952 190.015 279.286 191.104 279.286C191.581 279.286 192.139 279.394 192.526 279.565L192.877 277.234C192.553 277.117 192.157 277.045 191.653 277.045ZM198.048 277.045C195.438 277.045 193.638 278.917 193.638 281.662C193.638 284.407 195.492 286.225 198.165 286.225C199.632 286.225 200.892 285.811 201.882 284.902L200.505 283.39C199.875 283.921 199.056 284.227 198.3 284.227C197.193 284.227 196.311 283.678 196.059 282.418H202.242C202.269 282.22 202.287 281.896 202.287 281.626C202.278 278.908 200.559 277.045 198.048 277.045ZM198.03 279.07C199.038 279.07 199.713 279.7 199.929 280.816H196.068C196.275 279.736 196.923 279.07 198.03 279.07ZM210.437 277.279H207.278V274.687H204.929V277.279H203.246V279.367H204.929V282.742C204.929 285.001 206.036 286.225 208.196 286.225C209.438 286.225 210.32 285.829 211.085 285.307L210.221 283.471C209.744 283.759 209.141 284.038 208.583 284.038C207.854 284.038 207.278 283.642 207.278 282.553V279.367H210.437V277.279ZM220.605 277.279H218.265V282.076C218.265 283.471 217.491 284.038 216.483 284.038C215.466 284.038 214.701 283.471 214.701 282.076V277.279H212.352V282.283C212.352 285.037 214.296 286.225 216.483 286.225C218.661 286.225 220.605 285.037 220.605 282.283V277.279ZM227.74 277.045C226.669 277.045 225.832 277.414 225.283 278.233V277.279H223.006V286H225.355V281.248C225.355 279.952 226.102 279.286 227.191 279.286C227.668 279.286 228.226 279.394 228.613 279.565L228.964 277.234C228.64 277.117 228.244 277.045 227.74 277.045ZM235.416 277.045C234.426 277.045 233.472 277.378 232.851 278.305V277.279H230.565V286H232.914V281.221C232.914 279.907 233.751 279.25 234.759 279.25C235.83 279.25 236.46 279.943 236.46 281.203V286H238.809V280.447C238.809 278.422 237.396 277.045 235.416 277.045Z" fill="#72778E"/>
<path opacity="0.7" d="M109.376 297.731C106.574 297.731 104.598 299.733 104.598 302.45C104.598 305.167 106.574 307.169 109.376 307.169C112.177 307.169 114.16 305.167 114.16 302.45C114.16 299.733 112.177 297.731 109.376 297.731ZM109.376 299.473C111.053 299.473 112.262 300.682 112.262 302.45C112.262 304.218 111.053 305.427 109.376 305.427C107.705 305.427 106.49 304.218 106.49 302.45C106.49 300.682 107.705 299.473 109.376 299.473ZM118.633 300.532C116.624 300.532 115.279 301.943 115.279 303.847C115.279 305.758 116.624 307.163 118.633 307.163C119.686 307.163 120.57 306.74 121.161 305.979L119.952 304.946C119.595 305.336 119.127 305.583 118.581 305.583C117.703 305.583 117.008 304.9 117.008 303.847C117.008 302.801 117.71 302.112 118.587 302.112C119.14 302.112 119.549 302.333 119.933 302.742L121.155 301.722C120.576 300.961 119.686 300.532 118.633 300.532ZM127.018 300.701H124.736V298.829H123.04V300.701H121.824V302.209H123.04V304.647C123.04 306.278 123.839 307.163 125.399 307.163C126.296 307.163 126.933 306.876 127.486 306.499L126.862 305.173C126.517 305.381 126.082 305.583 125.679 305.583C125.152 305.583 124.736 305.297 124.736 304.51V302.209H127.018V300.701ZM131.45 300.532C129.493 300.532 128.05 301.949 128.05 303.847C128.05 305.745 129.493 307.163 131.45 307.163C133.413 307.163 134.862 305.745 134.862 303.847C134.862 301.949 133.413 300.532 131.45 300.532ZM131.45 302.112C132.405 302.112 133.127 302.827 133.127 303.847C133.127 304.868 132.405 305.583 131.45 305.583C130.494 305.583 129.779 304.868 129.779 303.847C129.779 302.827 130.494 302.112 131.45 302.112ZM139.784 300.532C138.939 300.532 138.347 300.864 137.938 301.358V297.64H136.248V307H137.905V306.304C138.315 306.811 138.919 307.163 139.79 307.163C141.526 307.163 142.839 305.739 142.839 303.847C142.839 301.956 141.526 300.532 139.784 300.532ZM139.472 302.112C140.473 302.112 141.097 302.885 141.097 303.847C141.097 304.809 140.473 305.583 139.472 305.583C138.51 305.583 137.853 304.842 137.853 303.847C137.853 302.853 138.51 302.112 139.472 302.112ZM147.016 300.532C145.131 300.532 143.831 301.884 143.831 303.867C143.831 305.849 145.17 307.163 147.1 307.163C148.16 307.163 149.07 306.863 149.785 306.207L148.79 305.115C148.335 305.498 147.744 305.719 147.198 305.719C146.398 305.719 145.761 305.323 145.579 304.413H150.045C150.064 304.27 150.077 304.036 150.077 303.841C150.071 301.878 148.829 300.532 147.016 300.532ZM147.003 301.995C147.731 301.995 148.218 302.45 148.374 303.256H145.586C145.735 302.476 146.203 301.995 147.003 301.995ZM154.876 300.532C154.102 300.532 153.498 300.799 153.101 301.39V300.701H151.457V307H153.153V303.568C153.153 302.632 153.693 302.151 154.479 302.151C154.824 302.151 155.227 302.229 155.506 302.352L155.76 300.669C155.526 300.584 155.24 300.532 154.876 300.532ZM163.737 297.737C161.56 297.737 159.818 299.506 159.818 302.45C159.818 305.394 161.56 307.163 163.737 307.163C165.908 307.163 167.663 305.394 167.663 302.45C167.663 299.506 165.908 297.737 163.737 297.737ZM163.737 299.421C164.907 299.421 165.83 300.461 165.83 302.45C165.83 304.439 164.907 305.479 163.737 305.479C162.574 305.479 161.644 304.439 161.644 302.45C161.644 300.461 162.574 299.421 163.737 299.421ZM172.623 297.757L168.691 299.343V301.111L170.868 300.227V307H172.623V297.757ZM181.459 302.801H177.618V304.283H181.459V302.801ZM189.66 297.757L185.728 299.343V301.111L187.905 300.227V307H189.66V297.757ZM197.196 297.9H191.963L191.866 302.938H194.03C195.454 302.938 195.883 303.535 195.883 304.218C195.883 304.939 195.382 305.537 194.368 305.537C193.53 305.537 192.639 305.115 192.145 304.575L191.157 305.804C191.911 306.655 193.023 307.163 194.381 307.163C196.221 307.163 197.703 306.045 197.703 304.088C197.703 302.567 196.637 301.351 194.518 301.351H193.471L193.51 299.531H197.196V297.9Z" fill="#5A63AF"/>
<path d="M333.921 276.2C328.561 276.2 324.273 280.552 324.273 287.8C324.273 295.048 328.561 299.4 333.921 299.4C339.265 299.4 343.585 295.048 343.585 287.8C343.585 280.552 339.265 276.2 333.921 276.2ZM333.921 280.344C336.801 280.344 339.073 282.904 339.073 287.8C339.073 292.696 336.801 295.256 333.921 295.256C331.057 295.256 328.769 292.696 328.769 287.8C328.769 282.904 331.057 280.344 333.921 280.344ZM349.354 293.192C347.69 293.192 346.234 294.616 346.234 296.28C346.234 297.96 347.69 299.4 349.354 299.4C351.002 299.4 352.442 297.96 352.442 296.28C352.442 294.616 351.002 293.192 349.354 293.192ZM356.617 299H361.833L368.041 289.704C369.401 287.672 370.169 285.8 370.169 283.752C370.169 279.416 366.537 276.2 361.753 276.2C356.937 276.2 353.337 279.448 353.337 283.832C353.337 288.024 356.553 291.272 361.097 291.272C361.481 291.272 361.801 291.256 362.105 291.208L356.617 299ZM361.753 287.48C359.497 287.48 357.833 285.96 357.833 283.8C357.833 281.624 359.497 280.12 361.753 280.12C363.993 280.12 365.673 281.624 365.673 283.8C365.673 285.96 363.993 287.48 361.753 287.48ZM386.936 276.6H374.056L373.816 289H379.144C382.648 289 383.704 290.472 383.704 292.152C383.704 293.928 382.472 295.4 379.976 295.4C377.912 295.4 375.72 294.36 374.504 293.032L372.072 296.056C373.928 298.152 376.664 299.4 380.008 299.4C384.536 299.4 388.184 296.648 388.184 291.832C388.184 288.088 385.56 285.096 380.344 285.096H377.768L377.864 280.616H386.936V276.6ZM393.387 282.792C394.539 281.48 395.803 280.328 397.931 280.328C399.995 280.328 401.355 281.72 401.355 283.672C401.355 285.08 400.699 286.312 399.515 287.512L391.595 295.624V299H406.395V294.952H397.835L402.619 289.976C404.459 288.072 405.851 286.168 405.851 283.432C405.851 279.144 402.939 276.2 398.251 276.2C394.091 276.2 391.819 278.472 390.603 280.056L393.387 282.792ZM411.899 299H417.115L423.323 289.704C424.683 287.672 425.451 285.8 425.451 283.752C425.451 279.416 421.819 276.2 417.035 276.2C412.219 276.2 408.618 279.448 408.618 283.832C408.618 288.024 411.835 291.272 416.378 291.272C416.763 291.272 417.083 291.256 417.387 291.208L411.899 299ZM417.035 287.48C414.779 287.48 413.115 285.96 413.115 283.8C413.115 281.624 414.779 280.12 417.035 280.12C419.275 280.12 420.955 281.624 420.955 283.8C420.955 285.96 419.275 287.48 417.035 287.48ZM441.768 276.2C438.2 276.2 435.528 278.808 435.528 282.296C435.528 285.816 438.2 288.424 441.768 288.424C445.352 288.424 448.024 285.816 448.024 282.296C448.024 278.808 445.352 276.2 441.768 276.2ZM441.768 279.544C443.336 279.544 444.472 280.696 444.472 282.296C444.472 283.928 443.336 285.08 441.768 285.08C440.232 285.08 439.08 283.928 439.08 282.296C439.08 280.696 440.232 279.544 441.768 279.544ZM459.752 276.6H455.576L440.552 299H444.744L459.752 276.6ZM458.584 287.176C455.016 287.176 452.344 289.832 452.344 293.288C452.344 296.792 455.016 299.4 458.584 299.4C462.168 299.4 464.84 296.792 464.84 293.288C464.84 289.8 462.168 287.176 458.584 287.176ZM458.584 290.52C460.152 290.52 461.288 291.672 461.288 293.288C461.288 294.904 460.152 296.056 458.584 296.056C457.032 296.056 455.896 294.904 455.896 293.288C455.896 291.672 457.032 290.52 458.584 290.52Z" fill="#171F46"/>
<path opacity="0.6" d="M112.154 350.4H109.094L104.189 363H106.808L107.906 360.066H113.279L114.377 363H117.059L112.154 350.4ZM110.597 352.884L112.415 357.753H108.77L110.597 352.884ZM122.38 354.045C119.599 354.045 117.736 355.998 117.736 358.635C117.736 361.281 119.599 363.225 122.38 363.225C123.838 363.225 125.062 362.64 125.881 361.587L124.207 360.156C123.712 360.696 123.064 361.038 122.308 361.038C121.093 361.038 120.13 360.093 120.13 358.635C120.13 357.186 121.102 356.232 122.317 356.232C123.082 356.232 123.649 356.538 124.18 357.105L125.872 355.692C125.071 354.639 123.838 354.045 122.38 354.045ZM131.503 354.045C128.722 354.045 126.859 355.998 126.859 358.635C126.859 361.281 128.722 363.225 131.503 363.225C132.961 363.225 134.185 362.64 135.004 361.587L133.33 360.156C132.835 360.696 132.187 361.038 131.431 361.038C130.216 361.038 129.253 360.093 129.253 358.635C129.253 357.186 130.225 356.232 131.44 356.232C132.205 356.232 132.772 356.538 133.303 357.105L134.995 355.692C134.194 354.639 132.961 354.045 131.503 354.045ZM144.879 354.279H142.539V359.076C142.539 360.471 141.765 361.038 140.757 361.038C139.74 361.038 138.975 360.471 138.975 359.076V354.279H136.626V359.283C136.626 362.037 138.57 363.225 140.757 363.225C142.935 363.225 144.879 362.037 144.879 359.283V354.279ZM157.972 354.045C156.829 354.045 155.686 354.432 155.011 355.539C154.426 354.612 153.391 354.045 152.131 354.045C151.141 354.045 150.187 354.378 149.566 355.305V354.279H147.28V363H149.629V358.221C149.629 356.907 150.466 356.25 151.474 356.25C152.545 356.25 153.175 356.943 153.175 358.203V363H155.524V358.221C155.524 356.907 156.361 356.25 157.369 356.25C158.431 356.25 159.07 356.943 159.07 358.203V363H161.41V357.447C161.41 355.422 160.024 354.045 157.972 354.045ZM171.984 354.279H169.644V359.076C169.644 360.471 168.87 361.038 167.862 361.038C166.845 361.038 166.08 360.471 166.08 359.076V354.279H163.731V359.283C163.731 362.037 165.675 363.225 167.862 363.225C170.04 363.225 171.984 362.037 171.984 359.283V354.279ZM176.734 350.04H174.385V363H176.734V350.04ZM187.788 354.279H185.493V355.242C184.917 354.531 184.08 354.045 182.883 354.045C180.48 354.045 178.662 356.016 178.662 358.635C178.662 361.254 180.48 363.225 182.883 363.225C184.08 363.225 184.926 362.739 185.493 362.037V363H187.788V354.279ZM183.315 356.232C184.656 356.232 185.565 357.258 185.565 358.635C185.565 360.012 184.656 361.038 183.315 361.038C181.938 361.038 181.065 359.967 181.065 358.635C181.065 357.303 181.938 356.232 183.315 356.232ZM196.585 354.279H193.426V351.687H191.077V354.279H189.394V356.367H191.077V359.742C191.077 362.001 192.184 363.225 194.344 363.225C195.586 363.225 196.468 362.829 197.233 362.307L196.369 360.471C195.892 360.759 195.289 361.038 194.731 361.038C194.002 361.038 193.426 360.642 193.426 359.553V356.367H196.585V354.279ZM202.425 354.045C199.815 354.045 198.015 355.917 198.015 358.662C198.015 361.407 199.869 363.225 202.542 363.225C204.009 363.225 205.269 362.811 206.259 361.902L204.882 360.39C204.252 360.921 203.433 361.227 202.677 361.227C201.57 361.227 200.688 360.678 200.436 359.418H206.619C206.646 359.22 206.664 358.896 206.664 358.626C206.655 355.908 204.936 354.045 202.425 354.045ZM202.407 356.07C203.415 356.07 204.09 356.7 204.306 357.816H200.445C200.652 356.736 201.3 356.07 202.407 356.07ZM212.256 354.045C209.853 354.045 208.035 356.016 208.035 358.635C208.035 361.254 209.853 363.225 212.256 363.225C213.453 363.225 214.299 362.739 214.866 362.037V363H217.161V350.04H214.821V355.188C214.254 354.504 213.426 354.045 212.256 354.045ZM212.688 356.232C214.029 356.232 214.938 357.258 214.938 358.635C214.938 360.012 214.029 361.038 212.688 361.038C211.311 361.038 210.438 359.967 210.438 358.635C210.438 357.303 211.311 356.232 212.688 356.232ZM228.813 354.045C227.742 354.045 226.905 354.414 226.356 355.233V354.279H224.079V363H226.428V358.248C226.428 356.952 227.175 356.286 228.264 356.286C228.741 356.286 229.299 356.394 229.686 356.565L230.037 354.234C229.713 354.117 229.317 354.045 228.813 354.045ZM235.208 354.045C232.598 354.045 230.798 355.917 230.798 358.662C230.798 361.407 232.652 363.225 235.325 363.225C236.792 363.225 238.052 362.811 239.042 361.902L237.665 360.39C237.035 360.921 236.216 361.227 235.46 361.227C234.353 361.227 233.471 360.678 233.219 359.418H239.402C239.429 359.22 239.447 358.896 239.447 358.626C239.438 355.908 237.719 354.045 235.208 354.045ZM235.19 356.07C236.198 356.07 236.873 356.7 237.089 357.816H233.228C233.435 356.736 234.083 356.07 235.19 356.07ZM247.597 354.279H244.438V351.687H242.089V354.279H240.406V356.367H242.089V359.742C242.089 362.001 243.196 363.225 245.356 363.225C246.598 363.225 247.48 362.829 248.245 362.307L247.381 360.471C246.904 360.759 246.301 361.038 245.743 361.038C245.014 361.038 244.438 360.642 244.438 359.553V356.367H247.597V354.279ZM257.766 354.279H255.426V359.076C255.426 360.471 254.652 361.038 253.644 361.038C252.627 361.038 251.862 360.471 251.862 359.076V354.279H249.513V359.283C249.513 362.037 251.457 363.225 253.644 363.225C255.822 363.225 257.766 362.037 257.766 359.283V354.279ZM264.901 354.045C263.83 354.045 262.993 354.414 262.444 355.233V354.279H260.167V363H262.516V358.248C262.516 356.952 263.263 356.286 264.352 356.286C264.829 356.286 265.387 356.394 265.774 356.565L266.125 354.234C265.801 354.117 265.405 354.045 264.901 354.045ZM272.576 354.045C271.586 354.045 270.632 354.378 270.011 355.305V354.279H267.725V363H270.074V358.221C270.074 356.907 270.911 356.25 271.919 356.25C272.99 356.25 273.62 356.943 273.62 358.203V363H275.969V357.447C275.969 355.422 274.556 354.045 272.576 354.045Z" fill="#72778E"/>
<path opacity="0.7" d="M109.889 374.9H107.679L104.137 384H106.028L106.821 381.881H110.702L111.494 384H113.432L109.889 374.9ZM108.765 376.694L110.078 380.21H107.445L108.765 376.694ZM117.966 377.532C117.251 377.532 116.562 377.773 116.114 378.442V377.701H114.463V384H116.159V380.548C116.159 379.599 116.764 379.125 117.492 379.125C118.265 379.125 118.72 379.625 118.72 380.535V384H120.417V379.989C120.417 378.527 119.396 377.532 117.966 377.532ZM125.647 377.532C124.932 377.532 124.243 377.773 123.794 378.442V377.701H122.143V384H123.84V380.548C123.84 379.599 124.444 379.125 125.172 379.125C125.946 379.125 126.401 379.625 126.401 380.535V384H128.097V379.989C128.097 378.527 127.077 377.532 125.647 377.532ZM135.733 377.701H134.043V381.166C134.043 382.173 133.484 382.583 132.756 382.583C132.021 382.583 131.469 382.173 131.469 381.166V377.701H129.772V381.315C129.772 383.304 131.176 384.163 132.756 384.163C134.329 384.163 135.733 383.304 135.733 381.315V377.701ZM143.668 377.701H142.01V378.397C141.594 377.883 140.99 377.532 140.125 377.532C138.39 377.532 137.077 378.956 137.077 380.847C137.077 382.739 138.39 384.163 140.125 384.163C140.99 384.163 141.601 383.811 142.01 383.304V384H143.668V377.701ZM140.437 379.112C141.406 379.112 142.062 379.853 142.062 380.847C142.062 381.842 141.406 382.583 140.437 382.583C139.443 382.583 138.812 381.809 138.812 380.847C138.812 379.885 139.443 379.112 140.437 379.112ZM147.149 374.64H145.452V384H147.149V374.64Z" fill="#5A63AF"/>
<path d="M347.044 358.792C348.196 357.48 349.46 356.328 351.588 356.328C353.652 356.328 355.012 357.72 355.012 359.672C355.012 361.08 354.356 362.312 353.172 363.512L345.252 371.624V375H360.052V370.952H351.492L356.276 365.976C358.116 364.072 359.508 362.168 359.508 359.432C359.508 355.144 356.596 352.2 351.908 352.2C347.748 352.2 345.476 354.472 344.26 356.056L347.044 358.792ZM365.555 375H370.771L376.979 365.704C378.339 363.672 379.107 361.8 379.107 359.752C379.107 355.416 375.475 352.2 370.691 352.2C365.875 352.2 362.275 355.448 362.275 359.832C362.275 364.024 365.491 367.272 370.035 367.272C370.419 367.272 370.739 367.256 371.043 367.208L365.555 375ZM370.691 363.48C368.435 363.48 366.771 361.96 366.771 359.8C366.771 357.624 368.435 356.12 370.691 356.12C372.931 356.12 374.611 357.624 374.611 359.8C374.611 361.96 372.931 363.48 370.691 363.48ZM383.042 369.192C381.378 369.192 379.922 370.616 379.922 372.28C379.922 373.96 381.378 375.4 383.042 375.4C384.69 375.4 386.13 373.96 386.13 372.28C386.13 370.616 384.69 369.192 383.042 369.192ZM397.629 352.2C393.101 352.2 389.421 354.6 389.421 358.632C389.421 361.208 390.893 362.808 392.829 363.704C390.621 364.568 388.877 366.168 388.877 368.904C388.877 372.984 392.813 375.4 397.629 375.4C402.445 375.4 406.381 372.984 406.381 368.904C406.381 366.168 404.621 364.568 402.413 363.704C404.349 362.808 405.837 361.208 405.837 358.632C405.837 354.6 402.157 352.2 397.629 352.2ZM397.629 365.464C399.853 365.464 401.725 366.536 401.725 368.536C401.725 370.504 399.853 371.544 397.629 371.544C395.389 371.544 393.533 370.504 393.533 368.536C393.533 366.536 395.389 365.464 397.629 365.464ZM397.629 356.104C399.629 356.104 401.245 357.112 401.245 358.968C401.245 360.888 399.629 361.912 397.629 361.912C395.629 361.912 394.013 360.888 394.013 358.968C394.013 357.112 395.629 356.104 397.629 356.104ZM423.717 352.6H410.837L410.597 365H415.925C419.429 365 420.485 366.472 420.485 368.152C420.485 369.928 419.253 371.4 416.757 371.4C414.693 371.4 412.501 370.36 411.285 369.032L408.853 372.056C410.709 374.152 413.445 375.4 416.789 375.4C421.317 375.4 424.965 372.648 424.965 367.832C424.965 364.088 422.341 361.096 417.125 361.096H414.549L414.645 356.616H423.717V352.6ZM441.768 352.2C438.2 352.2 435.528 354.808 435.528 358.296C435.528 361.816 438.2 364.424 441.768 364.424C445.352 364.424 448.024 361.816 448.024 358.296C448.024 354.808 445.352 352.2 441.768 352.2ZM441.768 355.544C443.336 355.544 444.472 356.696 444.472 358.296C444.472 359.928 443.336 361.08 441.768 361.08C440.232 361.08 439.08 359.928 439.08 358.296C439.08 356.696 440.232 355.544 441.768 355.544ZM459.752 352.6H455.576L440.552 375H444.744L459.752 352.6ZM458.584 363.176C455.016 363.176 452.344 365.832 452.344 369.288C452.344 372.792 455.016 375.4 458.584 375.4C462.168 375.4 464.84 372.792 464.84 369.288C464.84 365.8 462.168 363.176 458.584 363.176ZM458.584 366.52C460.152 366.52 461.288 367.672 461.288 369.288C461.288 370.904 460.152 372.056 458.584 372.056C457.032 372.056 455.896 370.904 455.896 369.288C455.896 367.672 457.032 366.52 458.584 366.52Z" fill="#171F46"/>
<defs>
<filter id="filter0_dd" x="14" y="99" width="542" height="396" filterUnits="userSpaceOnUse" color-interpolation-filters="sRGB">
<feFlood flood-opacity="0" result="BackgroundImageFix"/>
<feColorMatrix in="SourceAlpha" type="matrix" values="0 0 0 0 0 0 0 0 0 0 0 0 0 0 0 0 0 0 127 0"/>
<feOffset dy="10"/>
<feGaussianBlur stdDeviation="30"/>
<feColorMatrix type="matrix" values="0 0 0 0 0.0901961 0 0 0 0 0.121569 0 0 0 0 0.27451 0 0 0 0.08 0"/>
<feBlend mode="normal" in2="BackgroundImageFix" result="effect1_dropShadow"/>
<feColorMatrix in="SourceAlpha" type="matrix" values="0 0 0 0 0 0 0 0 0 0 0 0 0 0 0 0 0 0 127 0"/>
<feOffset/>
<feGaussianBlur stdDeviation="0.5"/>
<feColorMatrix type="matrix" values="0 0 0 0 0.0901961 0 0 0 0 0.121569 0 0 0 0 0.27451 0 0 0 0.04 0"/>
<feBlend mode="normal" in2="effect1_dropShadow" result="effect2_dropShadow"/>
<feBlend mode="normal" in="SourceGraphic" in2="effect2_dropShadow" result="shape"/>
</filter>
</defs>
</svg>
