<svg xmlns="http://www.w3.org/2000/svg" width="21" height="20" fill="none" viewBox="0 0 21 20">
    <path fill="#5493F7" fill-opacity=".5" fill-rule="evenodd" d="M16.654 2.77l.002.001c2.2 1.714 1.569 7.883-.684 6.266-4.896-.009-14.053-2.632-11.32-6.242.275-.364.612-.68 1.004-.95l-.032-.01c.12-.072.242-.137.365-.203l.032-.017c.19-.107.391-.206.603-.295C7.805.795 9.112.5 10.487.5c2.354 0 4.509.852 6.17 2.268l-.003.001zm-4.506 16.587c-.996.064-2.969-1.488-3.518-3.522-1.048-3.875 7.448-5.838 8.228-5.895 2.169.056 2.712 2.629 1.117 5.293-2.049 3.424-5.792 4.122-5.827 4.124z" clip-rule="evenodd" opacity=".298"/>
    <path fill="#5493F7" fill-rule="evenodd" d="M1.038 5.86c.69.208 4.88-1.125 6.138-3.015.01-.015.984-1.513-.882-1.55-.198.008-.799.03-1.385.37-.276.164-.543.341-.801.53-.415.304-.806.64-1.17 1.003-.363.363-.698.754-1.002 1.169-.304.415-.578.854-.816 1.314-.03.057-.058.114-.086.17l.004.01zM6.02 19.346c.122-.198.214-2.544.124-3.139-.09-.593-.278-1.827-1.456-3.828-.19-.322-1.121-1.83-1.799-2.755-.373-.51-.78-.992-1.189-1.473C1.33 7.714.961 7.277.617 6.82c-.037.1-.072.2-.106.301-.165.498-.293 1.014-.38 1.544C.045 9.195 0 9.738 0 10.292s.045 1.098.131 1.628c.087.529.215 1.045.38 1.543.166.499.37.98.609 1.44.238.46.511.9.816 1.315.304.415.64.806 1.003 1.169.363.363.754.698 1.169 1.003.306.224.626.432.958.621.631.355.85.341.954.335zm14.045-9.054c0 1.301-.247 2.544-.698 3.685-1.181 1.27-9.15-1.856-9.227-1.89h-.001c-1.092-.48-4.406-1.932-4.705-4.214-.43-3.283 6.231-5.571 9.159-5.658.35.004 1.419.016 2.042.522 2.102 1.84 3.43 4.542 3.43 7.555zm-6.97 8.163c-.248.846.708 1.141 1.577.736 1.718-.898 3.138-2.281 4.097-3.961.05-.088.002-.166-.112-.155-.92.09-5.084 1.756-5.562 3.38z" clip-rule="evenodd"/>
</svg>
