<?xml version="1.0" ?><svg viewBox="0 0 96 96" xmlns="http://www.w3.org/2000/svg"><defs><style>.cls-1{fill:#2ad3c0;}</style></defs><title/><g data-name="Your Icons" id="Your_Icons"><path class="cls-1" d="M48,92.82A44.41,44.41,0,1,1,92.41,48.41,44.46,44.46,0,0,1,48,92.82ZM48,6A42.41,42.41,0,1,0,90.41,48.41,42.46,42.46,0,0,0,48,6Z"/><path class="cls-1" d="M78,32a9.09,9.09,0,0,0-7.43-3.79H31.11l-3,9.11-.59,1.8h40.1L61.9,57.75H21.48l-.6,1.8-3,9.1H63.3a9.19,9.19,0,0,0,8.75-6.35l7.2-22.12A9.1,9.1,0,0,0,78,32Zm-.41,7.68-7.2,22.11a7.38,7.38,0,0,1-7,5.11H20.41l2.37-7.3H63.23l6.85-22.28H30L32.42,30h38.1a7.38,7.38,0,0,1,7,9.67Z"/><path class="cls-1" d="M43.33,43.58H19.64L16.29,53.91H40ZM19,51.91l2.05-6.33H40.58l-2,6.33Z"/></g></svg>