<svg xmlns="http://www.w3.org/2000/svg" width="200" height="200" fill="none" viewBox="0 0 200 200">
    <path fill="#5233D4" d="M128.391 48.856c-2.835-1.268-6.177-1.268-9.059-.138-2.466.991-5.647 2.582-7.122 6.57-1.683 4.517-.461 10.603 3.066 14.06 3.618 3.55 9.174 3.504 13.645 1.706 4.495-1.798 7.699-5.717 7.192-10.696-.484-4.633-3.388-9.566-7.722-11.502zM156.77 77.971c-2.786-2.493-5.719-4.937-8.163-7.82-.587-.734-1.662.341-1.027 1.026 2.445 2.884 5.329 5.328 8.164 7.82.684.636 1.71-.39 1.026-1.026zM163.747 27.438c-5.132 5.084-10.069 10.363-14.664 15.984-.586.733.44 1.76 1.027 1.027 4.594-5.573 9.531-10.9 14.664-15.984.684-.636-.342-1.711-1.027-1.027zM119.119 29.638c0-.93-1.466-.93-1.466 0 .049 3.372.88 6.696.635 10.118-.049.929 1.418.929 1.467 0 .244-3.422-.587-6.746-.636-10.118z"/>
    <path fill="#C8BFEF" d="M67.403 133.021c-4.497-31.723 3.421-46.486 33.63-47.708 30.208-1.222-34.803 49.126-34.803 49.126"/>
    <path fill="#9683E4" d="M99.81 88.98c-.146-1.223-.39-2.396-.781-3.569-5.964.391-11.047 1.32-15.251 2.835-.733 4.155-.293 8.652.537 12.758.587 2.933 1.37 5.817 2.298 8.603 1.026.88 2.395 1.418 4.204 1.369 1.613-.049 2.884-.587 4.008-1.466.538-.538 1.026-1.027 1.515-1.565 1.32-1.662 2.151-3.812 2.64-5.865 1.124-4.155 1.417-8.75.83-13.1z"/>
    <path fill="#C8BFEF" d="M57.138 142.895c22.583-34.07 53.965-94.145 65.696-89.11 11.732 5.035-7.528 27.667-10.852 33.679 0 0 8.115 0 9.337 7.234 0 0 8.75 3.618 8.456 9.63 0 0 9.923.196 7.528 11.096-2.395 10.901-5.719 22.339-10.852 21.752 0 0-4.839 7.235-6.648 14.762-1.808 7.528-16.864 20.775-16.864 20.775s-15.69-8.75-22.583-16.571c-6.94-7.821-23.218-13.247-23.218-13.247z"/>
    <path fill="#5233D4" d="M89.84 88.05c-3.325 6.844-6.99 13.688-12.123 19.407-.635.684.391 1.759 1.026 1.026 5.182-5.817 8.946-12.758 12.319-19.699.44-.831-.783-1.564-1.222-.733zM123.127 58.575c-.88 2.2-1.711 4.595-3.764 5.964-2.884 1.906-6.257 1.026-7.039-2.542-.195-.929-1.613-.538-1.417.391.733 3.324 3.812 5.475 7.185 4.4 3.666-1.174 5.133-4.497 6.453-7.821.342-.88-1.076-1.271-1.418-.392zM110.027 87.953c-1.466 2.395-2.981 4.742-4.79 6.941-.587.733.44 1.76 1.026 1.027 1.858-2.298 3.471-4.742 4.986-7.235.538-.782-.733-1.515-1.222-.733zM120.39 95.627c-1.515 1.369-1.857 3.569-3.422 4.888-.733.587.343 1.662 1.027 1.027 1.564-1.32 1.955-3.52 3.422-4.888.684-.636-.343-1.662-1.027-1.027zM130.704 120.899c-1.369 4.644-1.907 9.532-3.813 13.98-.391.88.88 1.613 1.271.733 2.004-4.595 2.591-9.581 4.008-14.371.196-.88-1.173-1.271-1.466-.342z"/>
    <path fill="#9683E4" d="M126.793 107.897c-1.662.537-2.493 1.808-2.933 3.323-.586.88-1.173 1.76-1.417 2.787-.098.44.244.928.684.928 3.031-.146 4.546-3.617 4.595-6.305 0-.489-.489-.831-.929-.733z"/>
</svg>
