<svg xmlns="http://www.w3.org/2000/svg" width="200" height="200" fill="none" viewBox="0 0 200 200">
    <path fill="#C8BFEF" d="M183.565 134.89c-2.875 1.232-5.926 1.995-9.035 1.174-2.464-.646-4.165-2.464-6.394-3.52-3.285-1.643-6.629-.059-10.09-.294-8.331-.586-1.76-12.436.293-16.308 2.523-4.752 7.157-11.968 4.986-17.6-2.287-5.924-11.85-2.933-16.074-1.114-4.223 1.819-7.626 4.986-11.146 7.92-4.224 3.461-8.565 6.922-12.964 10.148-8.741 6.453-18.01 12.379-28.218 16.25-4.693 1.76-9.445 2.934-14.373 3.696-4.282.704-8.564 1.643-12.964 1.877-4.635.235-10.208-.234-13.082-4.458-2.64-3.93-1.643-9.093-2.288-13.551-.411-3.051-1.467-6.864-4.517-8.331-2.992-1.466-6.57 0-9.328 1.35-9.738 4.81-16.778 14.02-23.055 22.585-.645.939.88 1.819 1.525.88 6.043-8.213 12.789-17.012 22-21.764 3.636-1.877 8.27-3.285 10.441 1.232 1.936 3.989 1.174 8.623 1.76 12.847 1.056 8.096 7.803 11.088 15.312 10.912 4.106-.118 8.154-.88 12.202-1.584 4.576-.821 9.093-1.525 13.551-2.992 9.68-3.168 18.655-8.272 26.986-14.079 8.389-5.808 15.839-12.789 24.111-18.773 3.754-2.698 8.154-4.282 12.788-4.752 1.936-.176 4.166-.293 5.339 1.525.938 1.467.704 3.579.352 5.222-1.349 6.335-5.456 11.732-7.861 17.716-1.995 5.045-3.227 12.32 4.165 12.73 2.347.118 4.576-.645 6.922-.528 2.582.176 4.283 2.112 6.453 3.227 4.283 2.288 8.741 1.525 13.024-.293 1.114-.294.176-1.819-.821-1.35z"/>
    <path fill="#5233D4" d="M84.823 93.887c-16.135-.349-30.354-7.894-38.074-22.403-3.192-6.036-5.455-17.586 3.367-20.256 5.862-1.741 12.478 1.393 18.05 2.902 1.219.348 1.799-1.567.522-1.915-6.326-1.683-14.278-5.398-20.72-2.264-7.023 3.367-7.023 12.595-4.585 18.863 2.786 7.37 8.358 14.161 14.684 18.805 7.777 5.803 17.296 8.067 26.814 8.241 1.219.058 1.219-1.915-.058-1.973zM149.885 49.429c-6.327-.29-13.581 3.947-17.412 8.822-.813.987.638 2.438 1.393 1.393 3.424-4.411 9.925-8.416 15.67-8.242 10.157.29 6.152 13.465 3.367 18.921-3.599 7.023-8.3 13.407-14.452 18.34-6.849 5.514-14.8 9.519-22.171 14.22-1.103.696-.058 2.437.987 1.741 8.648-5.514 18.108-10.099 25.653-17.18 6.442-5.978 12.362-14.8 14.626-23.39 1.625-6.21.058-14.335-7.661-14.625z"/>
    <path fill="#9683E4" d="M59.46 51.576c3.018.755 5.92 1.858 8.648 2.612 1.219.348 1.799-1.567.522-1.915-2.728-.755-5.688-1.8-8.764-2.612-.116.58-.29 1.219-.406 1.915zM84.823 93.887c-11.085-.233-21.242-3.889-29.02-10.854-.29.697-.58 1.335-.928 2.032 1.045.928 2.09 1.74 3.134 2.553 7.777 5.804 17.296 8.068 26.814 8.242 1.277.058 1.277-1.915 0-1.973zM144.719 82.627c-1.915 2.206-4.005 4.237-6.268 6.094-6.849 5.514-14.8 9.519-22.171 14.22-1.103.696-.058 2.437.987 1.741 8.648-5.514 18.108-10.099 25.653-17.18 1.045-.986 2.089-2.031 3.076-3.134-.406-.638-.871-1.218-1.277-1.74z"/>
    <path fill="#5233D4" d="M108.213 153.028c0 .929-.291 1.683-.697 2.322-2.379.058-4.817.174-7.197.232-.522-.638-.812-1.509-.754-2.554.058-1.973 0-4.004-.058-5.978-.348-8.241-1.567-16.367-1.974-24.608-.58-10.679 0-21.3-.58-31.98-.348-5.571 8.3-5.513 8.648 0 .638 10.68.058 21.359.58 31.98.407 8.125 1.625 16.251 1.974 24.376.116 2.032.116 4.121.058 6.21z"/>
    <path fill="#5233D4" d="M121.678 146.876v8.532c-4.701-.232-9.403-.174-14.104 0-2.379.058-4.817.174-7.197.232-4.294.174-8.59.348-12.884.406v-8.647c4.005-.058 8.01-.175 12.014-.291 2.902-.116 5.746-.174 8.648-.232 4.527-.174 8.996-.174 13.523 0zM97.534 122.442c.232 4.005.638 8.067.986 12.072 2.612-2.496 5.166-5.34 7.951-7.777-.116-1.451-.232-2.844-.29-4.295-.58-10.679 0-21.3-.58-31.98-.348-5.513-8.996-5.571-8.648 0 .58 10.622 0 21.301.58 31.98z"/>
    <path fill="#5233D4" d="M68.63 42.058c.174 7.023.523 14.742.87 23.1.059.928.059 1.857.117 2.785 0 .697.058 1.451.058 2.148 1.335 40.453 32.327 62.45 56.065 27.104 3.715-5.514 6.675-12.943 8.764-21.3.465-1.742.813-3.483 1.219-5.282.116-.638.232-1.219.348-1.857 1.567-8.474 2.38-17.644 2.38-26.756h-69.82v.058z"/>
    <path fill="#fff" d="M102.351 58.947c-3.018.058-5.978.174-8.996.348v8.648c2.843-.174 5.63-.348 8.473-.406 2.844-.058 5.688-.058 8.532.116.058-2.844.232-5.688.58-8.532-2.844-.174-5.687-.174-8.589-.174z"/>
    <path fill="#fff" d="M110.476 85.703c-.116-5.978-.29-12.014-.116-17.992.058-2.844.232-5.688.581-8.532-2.844-.174-5.746-.232-8.59-.174-.29 2.844-.407 5.746-.523 8.59-.174 6.036-.058 12.072 0 18.166h8.648v-.058z"/>
</svg>
