<svg xmlns="http://www.w3.org/2000/svg" width="380" height="574" fill="none" viewBox="0 0 380 574">
    <rect width="378" height="164" x="2" y="187" fill="#5233D4" rx="4"/>
    <g filter="url(#filter0_d)">
        <rect width="42" height="42" x="106" y="285" fill="#FFFEFC" rx="4"/>
    </g>
    <path fill="#000" d="M124 300h2v14h-2v-14zm4 2h2v12h-2v-12zm4-4h2v16h-2v-16zm-12 8h2v8h-2v-8z"/>
    <g filter="url(#filter1_d)">
        <rect width="42" height="42" x="170" y="285" fill="#FFFEFC" rx="4"/>
    </g>
    <path stroke="#000" stroke-miterlimit="3.999" stroke-width="2" d="M191 299v14"/>
    <path fill="#000" d="M186 316H196V318H186zM186 294H196V296H186z"/>
    <path stroke="#000" stroke-width="2" d="M187.5 302.5l3.536-3.536 3.535 3.536M187.5 309.5l3.536 3.536 3.535-3.536"/>
    <g filter="url(#filter2_d)">
        <rect width="42" height="42" x="42" y="285" fill="#FFFEFC" rx="4"/>
    </g>
    <path fill="#000" d="M57.375 310.781l1.25-1.562L54.601 306l4.024-3.219-1.25-1.562-5 4c-.237.19-.375.477-.375.781 0 .304.138.591.375.781l5 4zm11.25-9.562l-1.25 1.562L71.399 306l-4.024 3.219 1.25 1.562 5-4c.237-.19.375-.477.375-.781 0-.304-.138-.591-.375-.781l-5-4zM66 297.216l-4 18-1.953-.434 4-18 1.953.434z"/>
    <g filter="url(#filter3_d)">
        <rect width="42" height="42" x="298" y="285" fill="#FFFEFC" rx="4"/>
    </g>
    <path fill="#000" d="M312 297h-2v18h18v-2h-16v-16z"/>
    <path fill="#000" d="M320 306.586l-4.293-4.293-1.414 1.414 5.707 5.707 3-3 4.293 4.293 1.414-1.414-5.707-5.707-3 3z"/>
    <g filter="url(#filter4_d)">
        <rect width="42" height="42" x="234" y="285" fill="#FFFEFC" rx="4"/>
    </g>
    <path stroke="#000" stroke-linecap="square" stroke-width="2" d="M259 297h5v5M247 314l16-16M264 310v5h-5M258 309l5 5M247 298l5 5"/>
    <path fill="#fff" fill-rule="evenodd" d="M184.975 211.705c.702-.981 1.749-1.328 2.828-1.328 2.238 0 3.835 1.563 3.835 3.861v6.304h-2.655v-5.446c0-1.43-.712-2.216-1.923-2.216-1.139 0-2.085.745-2.085 2.237v5.425h-2.656V205.82h2.656v5.885zm11.529 3.882c0 1.512.987 2.728 2.543 2.728 1.516 0 2.543-1.165 2.543-2.728 0-1.563-1.027-2.728-2.543-2.728-1.556 0-2.543 1.216-2.543 2.728zm2.055-5.21c1.353 0 2.299.551 2.95 1.358v-1.093h2.594v9.9h-2.594v-1.093c-.641.796-1.597 1.348-2.95 1.348-2.716 0-4.772-2.237-4.772-5.21s2.056-5.21 4.772-5.21zm10.764 1.348v-1.083h-2.573v9.899h2.655v-5.394c0-1.471.844-2.227 2.075-2.227.539 0 1.17.123 1.608.317l.396-2.646c-.366-.133-.814-.214-1.383-.214-1.211 0-2.157.418-2.778 1.348zm10.737 6.589c1.139 0 2.014-.643 2.014-2.227v-5.445h2.645v5.68c0 3.126-2.197 4.475-4.659 4.475-2.472 0-4.669-1.349-4.669-4.475v-5.68h2.655v5.445c0 1.584.865 2.227 2.014 2.227zM170.595 201l-4.64 2.709-7.955 4.645v9.291l4.641 2.71h-.001l-4.64 2.71 3.314 1.935 4.641-2.71 7.954-4.645v-9.291l-4.639-2.709 4.639-2.709-3.314-1.936zm-9.281 14.709v-5.42l4.641-2.709 4.64 2.709v5.42l-4.64 2.71-4.641-2.71z" clip-rule="evenodd"/>
    <path fill="url(#paint0_linear)" fill-rule="evenodd" d="M192.345 256.5h126.657V277h-1v-19.5h-62.328V277h-1v-19.5h-62.329V277h-1v-19.5h-62.328V277h-1v-19.5H64V277h-1v-20.333h.5v-.167h127.845V237h1v19.5z" clip-rule="evenodd"/>
    <path fill="#fff" stroke="#000" stroke-width=".461" d="M296.632 397.596l-5.316-2.217-10.426 9.086 7.054 4.233 8.688-11.102z"/>
    <path fill="#fff" stroke="#000" stroke-width=".461" d="M293.545 399.287h0l.008.006c.926.661 2.068 1.011 3.249.879h.004c2.392-.221 4.714-2.137 5.515-4.36.657-1.93-.038-3.512-.674-4.648h0l-.001-.002c-.531-.973-1.327-1.77-2.3-2.301-.371-.185-.713-.355-1.094-.44h-.001l-.012-.003c-2.204-.617-4.839.353-6.453 1.968h0l-.002.002c-1.748 1.704-1.766 4.116-.65 6.218.586 1.036 1.392 2.017 2.411 2.681z"/>
    <path fill="#000100" d="M294.525 397.638c-.967.783-.506 2.349.691 2.625.507.138 1.059.184 1.612.138 2.487-.23 4.882-2.21 5.711-4.513.691-2.027-.046-3.685-.691-4.836-.552-1.014-1.381-1.843-2.395-2.395.231.783.875 1.704-.276 2.625-.921.691-1.612 1.704-1.796 2.856-.138.921-.415 1.75-1.198 2.394-.46.369-.967.691-1.474 1.014-.092.046-.138.092-.184.092z"/>
    <path fill="#fff" d="M296.69 392.894c2.211 1.658 2.809 3.869 1.059 5.435-1.474 1.289-3.915.184-4.375-.737l3.316-4.698z"/>
    <path fill="#000100" d="M293.374 388.38c.368.369.783.599 1.289.645.277 0 .231.461-.046.461-.644-.046-1.197-.369-1.612-.829-.184-.184.185-.507.369-.277zM295.538 391.144l-.644.276c-.277.138-.461-.276-.185-.414l.645-.277c.277-.092.461.323.184.415zM294.802 395.704c.414.046.783 0 1.105-.277.23-.184.507.184.276.369-.414.368-.921.46-1.427.368-.277-.046-.231-.507.046-.46z"/>
    <path fill="#fff" stroke="#000" stroke-width=".461" d="M183.562 413.833l-.012.457c-1.31.092-2.324.275-3.002.646-.334.183-.579.408-.739.685-.161.276-.246.621-.236 1.058.01.292.147.545.389.772.246.23.592.423.987.581.79.318 1.722.476 2.29.544l-.038.459c-.471-.023-1.124.014-1.646.28-.257.131-.478.315-.633.573-.155.258-.254.605-.243 1.075.01.317.093.569.265.784.175.22.458.419.902.597.896.359 2.371.604 4.696.808 2.569.226 6.135.401 11.029.641 3.907.191 8.66.424 14.428.758 1.255-5.699 2.465-11.395 3.502-17.133-7.951-.321-17.021-.731-22.081-1.095l-.001-.001-1.279-.097c-4.411-.339-7.262-.558-9.086-.438-.997.066-1.647.231-2.07.506-.406.263-.627.644-.722 1.217-.037.249.022.452.153.629.136.185.359.352.663.498.61.294 1.477.475 2.393.59l-.018.458c-.985.046-1.949.16-2.666.403-.733.248-1.105.591-1.122 1.034-.04 1.06.847 1.74 1.874 2.168.501.209 1.008.345 1.391.428.191.042.35.071.461.089l.128.019.033.005.008.001h.002v.001z"/>
    <path fill="#000100" d="M210.247 424.654c2.027.138 4.145.23 6.448.368 19.943 1.244 25.378.737 38.964-5.342.875-.415 1.797-.829 2.764-1.244.046 0 .046-.046.092-.046 5.803-2.671 13.172-6.264 23.351-11.007l2.671-.922c-2.165-3.224-5.619-5.48-9.027-6.724-.645-.23-1.244-.414-1.842-.599-2.533-.644-4.882-.737-6.54-.23l-1.014.276-28.094 7.37s-16.443.829-26.069.414c-.552 5.941-1.105 11.837-1.704 17.686z"/>
    <path fill="#FF5C82" d="M199.838 407.245c-8.658-6.679-10.869-9.074-12.435-7.508-1.566 1.566.829 4.376 5.204 8.567 4.376 4.191 7.231-1.059 7.231-1.059z"/>
    <path fill="#9683E4" d="M254.646 428.523c12.159 4.559 24.318 9.257 36.431 13.909-1.151 2.303-2.395 4.744-3.73 7.415 0 0-52.643 30.674-45.689 12.85 4.053-10.317 8.751-22.936 12.988-34.174z"/>
    <path fill="#9683E4" d="M168.243 534.039c3.362 2.303 7.047 7.231 8.152 8.797 3.362-5.296 13.679-21.646 20.357-32.101 4.146-6.448 10.041-16.443 13.633-19.851 6.633-6.31 39.195-43.109 38.919-43.524 4.099-.368 5.296 8.567 9.349 7.415.046 0-2.579 9.672-1.888 14.6.322 2.303-2.257 5.435-1.935 7.738-12.988 11.883-33.437 34.589-33.437 34.589s-1.796 7.185-4.237 13.587c-2.257 5.987-9.856 14.277-10.317 17.639-.553 4.1-1.796 6.725-9.257 11.883-2.58 1.796-12.16 11.56-12.62 11.607 0 0-8.797-15.061-13.679-23.213-4.744-8.106-7.047-11.883-3.04-9.166z"/>
    <path fill="#B7ABED" d="M220.195 509.536c.231-5.711.047-11.145 4.376-15.429 4.467-4.421 9.165-8.52 13.403-13.264 7.23-8.106 19.574-25.746 20.679-26.022.046 0-2.579 9.672-1.888 14.6.322 2.303-2.257 5.435-1.935 7.737-12.988 11.883-33.437 34.589-33.437 34.589s-.645 2.487-1.612 5.803c.184-2.671.322-5.342.414-8.014z"/>
    <path fill="#000100" d="M168.243 534.039c3.362 2.303 7.047 7.231 8.152 8.797.968-1.566 2.534-4.007 4.422-7.001 2.809 4.007 5.204 8.429 7.83 12.436 1.98 3.04 3.96 6.125 5.941 9.211-3.823 3.501-9.211 8.935-9.534 8.981 0 0-8.797-15.06-13.679-23.212-4.836-8.152-7.139-11.929-3.132-9.212z"/>
    <path fill="#9683E4" d="M236.776 503.227c1.658-4.698 5.941-15.475 10.593-26.068 6.402-14.554 12.343-28.187 12.343-28.187l9.166 1.29 16.949-1.981 2.533-.322c-.184.506-.415 1.197-.783 2.026-.184.507-.415 1.014-.691 1.612-2.165 5.02-6.126 13.403-10.317 22.062-7.599 15.659-16.028 32.332-16.028 32.332s5.527 4.467 10.778 5.296c5.25.829 4.145 5.481 7.829 10.823 3.685 5.343 11.883 3.639 15.706 10.041 3.823 6.402 5.849 6.402 8.106 8.705 2.717 4.007 12.389 13.863 12.85 15.659 0 0-31.457 15.613-34.589 17.087-3.132 1.474-1.52-2.487 8.705-9.58.691.092-3.132-3.132-6.54-6.448-9.074-7.737-35.741-30.213-41.82-36.523-7.369-7.599-8.613-7-4.79-17.824z"/>
    <path fill="#fff" d="M255.291 499.865c3.362-10.04 8.106-19.528 12.435-29.154 5.113-11.238 10.64-22.384 17.318-32.793.322-.506 1.151-.092.829.415-5.711 8.889-10.547 18.284-15.015 27.818-4.467 9.488-9.165 19.022-12.896 28.832-.875 2.257-1.566 4.56-2.395 6.816-.829 2.211-1.796 4.606-1.796 7.001 0 4.652 4.698 6.586 8.106 8.567 1.75 1.013 3.04 2.625 4.79 3.592 2.211 1.244 4.974.645 7.323 1.75 3.593 1.704 5.895 5.113 8.429 8.014 3.546 4.007 8.06 6.863 12.02 10.455 4.146 3.777 8.106 7.968 11.745 12.297.368.461-.415.967-.783.507-3.639-4.329-7.645-8.567-11.883-12.389-3.684-3.317-7.922-6.034-11.284-9.718-3.039-3.317-5.803-7.968-10.547-8.982-2.118-.46-4.099-.184-5.987-1.473-1.796-1.244-3.316-2.718-5.251-3.777-2.855-1.566-6.171-3.27-7.231-6.586-1.243-3.777.922-7.738 2.073-11.192z"/>
    <path fill="#000100" d="M257.962 509.076c.323-1.105 1.06-2.026 1.843-2.809.322-.369.829 0 .783.368.046.092.046.231-.046.369-.553.875-1.014 1.888-1.889 2.533-.322.276-.829-.092-.691-.461zM220.518 507.418l.23 4.606c.046.599-.875.645-.921.046l-.23-4.606c-.046-.599.875-.645.921-.046zM290.018 564.069c.645.092-2.303-2.442-5.389-5.343 8.014-3.639 16.074-7.093 23.904-11.146 3.454 3.915 7.093 7.922 7.369 9.027 0 0-31.457 15.614-34.589 17.087-3.178 1.474-1.566-2.487 8.705-9.625z"/>
    <path fill="#4C31C6" d="M201.451 492.162c14.543-11.146 12.747-22.338 10.338-33.439-.075-.384-.138-.703-.239-1.048-1.405-6.49-2.9-12.928-1.332-19.317.078-.281.181-.601.259-.882.039-.14.103-.319.142-.46 2.932-9.085 3.039-17.172.446-23.623l-.379-.92c-.874-1.916-1.991-3.717-3.363-5.301-.305-.37-.636-.702-.967-1.034-3.649-3.717-8.784-6.372-15.366-7.608-12.897-2.461-20.331 5.668-23.954 15.124-.155.396-.284.753-.438 1.15-1.432 4.038-2.138 8.228-2.369 11.959-.026.371-.028.703-.029 1.035-.054.907-.019 1.763.003 2.555.048.754.046 1.418.069 2.044-.001.333.023.627.048.92.17 5.775-.514 7.539-6.98 22.975-11.386 27.077 19.991 54.38 44.111 35.87z"/>
    <path fill="#030047" fill-rule="evenodd" d="M215.67 396.663c.107 0 .267-.053.374-.16.033-.033.066-.107.112-.209.028-.063.061-.137.102-.219 0-.321-.267-.588-.588-.588l-2.832.002.001-2.833c0-.321-.267-.588-.588-.588-.32 0-.588.268-.588.588l-.001 2.833-2.833.002c-.321 0-.588.267-.588.588-.001.321.267.588.587.588l2.833-.002-.001 2.833c-.001.321.267.588.587.588.107 0 .268-.054.375-.161.033-.033.066-.107.111-.209.029-.063.062-.137.103-.218l.001-2.833 2.833-.002zM147.948 450.762c.125 0 .312-.062.437-.187.038-.039.077-.125.13-.244.033-.074.072-.16.119-.255.001-.374-.311-.686-.685-.686l-3.305.002.002-3.305c0-.374-.312-.686-.686-.686-.374.001-.686.313-.686.687l-.002 3.305-3.305.001c-.374.001-.686.313-.686.687-.001.374.311.685.685.685l3.305-.001-.001 3.305c-.001.374.311.685.685.685.125 0 .312-.062.437-.187.038-.039.077-.125.13-.244.033-.074.072-.16.119-.255l.002-3.305 3.305-.002z" clip-rule="evenodd"/>
    <path fill="#fff" d="M182.43 421.549c4.371-1.242 8.678-2.47 13.035-3.609 3.974-1.062 8.087-1.753 12.024-3.007 1.061-.345 2.428-.819 3.516-1.535l-.379-.919c-.231.179-.499.332-.768.485-3.237 1.778-7.208 2.175-10.748 3.084-3.986.998-7.922 2.086-11.82 3.199-7.425 2.085-14.913 4.184-22.073 7.113-.217.076-.588.217-1.048.409-.027.37-.029.703-.03 1.035 1.688-.704 3.376-1.407 5.076-2.047 4.333-1.598 8.781-2.954 13.215-4.208zM168.475 433.074c4.026-.309 8.064-.387 12.075-.261 7.422.24 15.009.978 22.182 2.83 2.451.638 5.08 1.507 7.503 2.682.078-.281.181-.601.259-.882-1.072-.55-2.156-.997-3.228-1.38-6.941-2.529-14.603-3.485-21.973-3.968-4.343-.292-8.738-.342-13.095-.199-2.006.103-4.026.308-6.032.411-.562.013-1.214.078-1.904.116-.002.333.023.627.047.921 1.393-.013 2.825-.168 4.166-.27zM189.358 456.841c5.034-.245 10.068-.324 15.049.173 2.541.254 4.94 1.136 7.416 1.736-.075-.384-.138-.704-.239-1.049-.421-.115-.778-.242-1.161-.332-6.828-1.953-13.97-1.784-21.011-1.436-.6-.013-.68.934-.054.908z"/>
    <path fill="#030047" fill-rule="evenodd" d="M140.785 417.071c.178 0 .445-.088.623-.266.055-.055.11-.178.186-.348.047-.105.102-.228.17-.364-.001-.535-.447-.981-.982-.982l-4.721-.007-.008-4.722c-.001-.534-.447-.98-.981-.981-.535-.001-.98.444-.979.978l.008 4.722-4.722-.008c-.534-.001-.979.444-.978.979.001.534.447.98.981.981l4.722.008.007 4.721c.001.535.447.981.982.982.178 0 .445-.089.623-.267.055-.055.11-.178.186-.348.046-.105.101-.228.169-.364l-.007-4.721 4.721.007z" clip-rule="evenodd"/>
    <path fill="#000100" d="M253.909 430.503c11.929 4.928 23.858 9.902 35.971 14.37 14.415-28.509 17.317-32.01 8.29-35.971-.23-.092-.415-.184-.645-.276-1.796-.783-3.454-1.52-5.02-2.211-.138-.046-.23-.092-.369-.138-4.375-1.888-7.967-3.454-10.961-4.606-12.297-4.697-14.6-2.993-18.423 6.172-2.349 5.619-5.481 13.771-8.843 22.66z"/>
    <path fill="#5233D4" d="M259.067 415.488c1.981-3.546 3.777-7.185 5.665-10.777.277-.507 1.106-.092.829.415-1.888 3.592-3.684 7.23-5.665 10.777-.276.553-1.105.138-.829-.415z"/>
    <path fill="#fff" stroke="#000" stroke-width=".461" d="M277.325 410.763l.437-.149c.635-.215 1.592-.532 2.883-.941 2.48-.786 6.193-1.912 11.22-3.307-4.15-1.815-7.62-3.269-10.525-4.401l-4.015 8.798z"/>
    <mask id="088o3829sa" fill="#fff">
        <path fill-rule="evenodd" d="M207.08 430.49c-8.173.548-10.47.791-10.512 3.099-.046 1.243 1.751 1.52 3.639 1.474-1.935.368-3.869 1.013-3.731 2.21.231 2.442 4.468 2.349 4.468 2.349-2.579.553-4.099 1.336-3.685 3.178.231 1.428 2.487 1.612 3.685 1.612-.967.092-2.349.415-2.027 2.441.322 2.217 3.612 1.908 17.299.626 3.948-.37 8.762-.822 14.619-1.316.46-5.988.829-11.929 1.059-17.917-5.338.556-11.213 1.152-16.047 1.583-1.401-.605-2.66-1.165-3.79-1.669-5.132-2.286-7.621-3.394-8.856-2.125-1.264 1.299.896 2.624 3.829 4.424l.05.031z" clip-rule="evenodd"/>
    </mask>
    <path fill="#fff" fill-rule="evenodd" d="M207.08 430.49c-8.173.548-10.47.791-10.512 3.099-.046 1.243 1.751 1.52 3.639 1.474-1.935.368-3.869 1.013-3.731 2.21.231 2.442 4.468 2.349 4.468 2.349-2.579.553-4.099 1.336-3.685 3.178.231 1.428 2.487 1.612 3.685 1.612-.967.092-2.349.415-2.027 2.441.322 2.217 3.612 1.908 17.299.626 3.948-.37 8.762-.822 14.619-1.316.46-5.988.829-11.929 1.059-17.917-5.338.556-11.213 1.152-16.047 1.583-1.401-.605-2.66-1.165-3.79-1.669-5.132-2.286-7.621-3.394-8.856-2.125-1.264 1.299.896 2.624 3.829 4.424l.05.031z" clip-rule="evenodd"/>
    <path fill="#000" d="M196.568 433.589l.461.008v.009l-.461-.017zm10.512-3.099l.241-.392 1.231.755-1.441.097-.031-.46zm-6.873 4.573l-.011-.461.097.913-.086-.452zm-3.731 2.21l.458-.052.001.009-.459.043zm4.468 2.349l-.01-.46.106.911-.096-.451zm-3.685 3.178l.45-.101.003.014.002.014-.455.073zm3.685 1.612v-.46l.043.919-.043-.459zm-2.027 2.441l.455-.072.001.006-.456.066zm17.299.626l-.043-.459.043.459zm14.619-1.316l.459.035-.03.39-.39.033-.039-.458zm1.059-17.917l-.048-.458.529-.055-.021.531-.46-.018zm-16.047 1.583l.04.459-.116.01-.107-.046.183-.423zm-3.79-1.669l-.187.421.187-.421zm-8.856-2.125l-.331-.321.331.321zm3.829 4.424l.241-.392-.241.392zm-10.922 3.122c.012-.66.19-1.233.642-1.695.436-.444 1.078-.735 1.909-.952 1.654-.432 4.326-.631 8.391-.903l.061.919c-4.108.275-6.671.471-8.22.875-.769.201-1.22.438-1.483.706-.245.25-.37.572-.379 1.066l-.921-.016zm4.11 1.942c-.957.024-1.941-.032-2.697-.275-.379-.122-.738-.303-1.002-.579-.276-.289-.427-.66-.411-1.097l.921.034c-.007.185.049.315.156.426.118.124.319.242.618.339.604.194 1.461.254 2.393.231l.022.921zm-4.199 1.803c-.106-.913.602-1.509 1.338-1.88.767-.387 1.786-.649 2.764-.836l.172.905c-.957.182-1.872.426-2.521.754-.681.343-.871.667-.838.952l-.915.105zm4.925 2.296l.009.461h-.056c-.034.001-.083 0-.145-.001-.123-.002-.298-.009-.508-.024-.417-.031-.984-.099-1.563-.249-1.108-.287-2.518-.95-2.663-2.492l.917-.087c.085.899.908 1.41 1.977 1.688.509.131 1.016.193 1.4.221.191.014.349.02.458.022l.125.001h.039l.01.46zm-4.134 3.279c-.119-.527-.106-1.014.055-1.455.161-.441.456-.796.835-1.085.739-.562 1.853-.912 3.147-1.189l.193.901c-1.285.275-2.22.593-2.782 1.021-.271.207-.44.427-.528.668-.088.242-.11.543-.021.937l-.899.202zm4.134 1.972c-.613 0-1.53-.046-2.338-.29-.788-.238-1.642-.723-1.801-1.709l.909-.147c.071.441.46.763 1.158.974.677.205 1.487.251 2.072.251v.921zm-2.482 2.053c-.179-1.13.109-1.901.695-2.376.541-.439 1.251-.549 1.743-.596l.087.917c-.474.045-.939.142-1.25.394-.266.216-.507.62-.365 1.516l-.91.145zm17.797 1.011c-6.828.64-11.106 1.042-13.711 1.002-1.296-.02-2.249-.149-2.91-.455-.341-.157-.616-.367-.818-.643-.201-.274-.31-.587-.359-.921l.912-.133c.032.22.096.382.19.51.093.127.235.246.462.351.474.22 1.259.35 2.537.37 2.541.039 6.752-.355 13.611-.998l.086.917zm14.615-1.316c-5.855.495-10.667.946-14.615 1.316l-.086-.917c3.948-.37 8.764-.821 14.623-1.316l.078.917zm1.48-18.357c-.23 5.995-.599 11.942-1.06 17.934l-.918-.071c.46-5.983.828-11.918 1.058-17.898l.92.035zm-16.548 1.106c4.83-.43 10.703-1.026 16.04-1.582l.096.916c-5.338.556-11.217 1.153-16.055 1.584l-.081-.918zm-.142.882c-1.404-.606-2.664-1.168-3.794-1.671l.375-.841c1.13.503 2.386 1.062 3.784 1.666l-.365.846zm-3.794-1.671c-2.581-1.149-4.45-1.981-5.829-2.374-1.398-.398-2.087-.286-2.51.15l-.661-.643c.813-.834 1.985-.802 3.424-.393 1.457.416 3.399 1.282 5.951 2.419l-.375.841zm-8.339-2.224c-.233.239-.259.416-.227.569.042.198.203.462.556.801.704.676 1.925 1.428 3.411 2.34l-.482.785c-1.447-.888-2.773-1.699-3.566-2.46-.396-.38-.721-.804-.82-1.276-.109-.516.069-.992.467-1.402l.661.643zm3.74 3.71l.05.031-.482.785-.05-.031.482-.785z" mask="url(#088o3829sa)"/>
    <path fill="#000100" d="M228.071 428.661c9.58-.967 22.753-3.086 22.753-3.086l38.043-15.89 8.474 9.396c-35.003 22.706-32.931 24.364-62.039 26.713-2.302.184-4.421.368-6.448.553-.184-5.942-.506-11.837-.783-17.686z"/>
    <path fill="#5233D4" d="M256.811 422.627c5.389-2.072 10.639-4.467 15.982-6.586.552-.23.829.645.276.875-5.343 2.119-10.593 4.514-15.982 6.586-.506.185-.829-.69-.276-.875zM272.148 434.326c8.198-4.606 16.488-9.027 24.917-13.126.506-.277 1.013.506.506.783-8.428 4.099-16.718 8.52-24.916 13.126-.507.276-1.014-.461-.507-.783z"/>
    <path fill="#000100" fill-rule="evenodd" d="M204.168 426.634c.737 1.06 2.579 1.658 3.5.553.184-.23.553.092.322.322-1.151 1.336-3.316.691-4.237-.645-.138-.23.23-.46.415-.23zm-1.295 7.997c1.398-.013 2.774-.026 4.15-.352.277-.092.415.369.138.461-1.298.333-2.596.353-3.912.373-.505.008-1.012.016-1.522.042-.277-.047-.323-.507 0-.507.384-.01.765-.013 1.146-.017zm6.269 4.439c-2.856.322-5.711.552-8.567.69-.322 0-.276.461 0 .461 2.856-.138 5.711-.368 8.567-.691.322-.046.276-.506 0-.46zm-8.705 5.296c2.948-.138 5.942-.414 8.889-.691.277-.046.323.415 0 .461-2.947.322-5.895.553-8.889.691-.276.046-.276-.415 0-.461zm.092-7.599c-.691-.507-1.704-.645-2.487-.276-.276.092-.138.552.138.414 1.06-.46 3.27.23 2.165 1.658-.184.23.138.553.322.323.553-.691.599-1.566-.138-2.119zm-2.164 4.237c.736-.23 1.566 0 2.164.507.645.552.737 1.151.507 1.98-.092.276-.553.184-.461-.092.015-.072.038-.149.062-.228.053-.171.108-.351.076-.509-.046-.322-.276-.599-.506-.783-.461-.414-1.106-.599-1.704-.414-.277.092-.415-.369-.138-.461zm3.73 5.112c-.645-.506-1.474-.506-2.211-.138-.23.138 0 .507.277.369.46-.231 1.013-.277 1.474 0 .414.23.691.644.276 1.059-.23.23.092.507.322.322.507-.506.415-1.197-.138-1.612zm-3.224-14.001c.553 0 1.152.138 1.52.599.322.461.322 1.013.184 1.566-.092.276-.506.184-.46-.092.092-.369.138-.783-.092-1.152-.277-.368-.737-.46-1.152-.46-.276 0-.276-.461 0-.461zm13.633 1.151c-.691-.184-1.382-.276-2.119-.184-.414.046-.598.645-.184.921.875.461 1.843.645 2.856.645.506 0 .552-.645.184-.875-.138-.092-.276-.138-.415-.184-.046-.139-.138-.277-.322-.323z" clip-rule="evenodd"/>
    <path fill="#fff" stroke="#000" stroke-width=".501" d="M192.597 113.786h0v.001h0l.003.003.013.015.049.06c.043.053.103.131.17.228.136.196.296.463.405.759.11.298.162.607.104.896-.056.28-.222.567-.598.822-.172.116-.429.207-.768.268-.336.06-.734.088-1.174.089-.881.002-1.904-.101-2.883-.241-.977-.14-1.903-.316-2.584-.457-.341-.071-.62-.132-.814-.177l-.224-.051-.058-.014-.014-.004h-.004l-.001-.001h0l-.059.244.059-.244-.154.476h.001l.004.002.015.006.062.026.235.101c.203.087.491.214.831.372.682.316 1.572.752 2.412 1.239.845.49 1.619 1.018 2.084 1.514.233.249.368.468.411.65.039.162.009.304-.127.449l-.002.003c-.304.334-.846.504-1.63.497-.776-.007-1.736-.187-2.805-.488-2.135-.602-4.652-1.673-6.905-2.725-.323-.15-.844-.389-1.534-.705-4.137-1.897-14.344-6.577-24.271-11.699-5.792-2.988-11.481-6.123-15.811-8.941-2.166-1.41-3.985-2.735-5.305-3.92-.66-.592-1.19-1.144-1.576-1.65-.388-.509-.618-.955-.698-1.336-.35-1.665-.019-4.04.842-6.94.859-2.89 2.232-6.266 3.928-9.918 3.372-7.261 8.009-15.584 12.374-23.294l45.997 64.085z"/>
    <path fill="#000100" d="M153.476 74.613l10.429-26.12-17.498.952c-4.061 7.12-8.322 14.84-11.631 21.709 6.166 1.654 12.433 2.657 18.7 3.46zM149.816 83.186c-.802-.15-1.504-.601-2.205-.952-.301-.15-.552.3-.251.451.752.401 1.454.852 2.306 1.053.351 0 .501-.451.15-.552zM132.118 89.855c-.3-.401-.551-.903-.601-1.404-.05-.652-1.053-.652-1.003 0 .05.702.301 1.353.752 1.905.151.2.451.3.702.2.201-.15.301-.5.15-.701z"/>
    <path fill="#000100" d="M132.419 45.434c1.304.35 10.278 4.963 20.707 9.576l5.314 4.612s8.623-10.93 15.943-25.168c7.32-14.189-4.111-14.54-4.111-14.54S136.581 14.3 125.601 8.132c-3.359 7.822 8.222 34.695 6.818 37.302z"/>
    <path fill="#5A63AF" d="M151.321 50.748h-4.663c-.652 0-.652 1.003 0 1.003h4.713c.602 0 .601-1.003-.05-1.003zM131.717 171.626c2.958 4.161 1.705 2.557-7.319-1.654-9.025-4.212-29.13-12.234-29.13-12.234.251-3.71 1.805-7.119.903-10.277-2.657-9.125-1.304-14.791.35-15.793 3.009-1.855 1.756-5.766 3.861-12.183 2.256-6.819 4.914-15.342 4.914-15.342s-2.407-21.007-5.766-37.352c-.752-3.71-1.554-7.169-2.356-10.077-1.304-4.663-1.555-13.085-1.555-20.706.05-7.62.351-14.44.251-15.843-.05-.752-.1-1.304-.1-1.805 0-1.304.2-1.604.902-1.604.552 0 1.354.25 2.607.3 2.357.15 6.167-.1 12.234-3.108 4.462-2.206 7.721-1.103 13.236-2.507.852 2.908 2.556 8.624 4.361 14.64 2.607 8.674 5.415 17.999 6.267 20.706-5.013.752-8.021 1.755-11.03 2.758 0 0 3.109 36.95 4.362 46.476.652 5.164-1.103 17.197-2.005 25.218-1.805 15.643-4.914 41.764-4.914 41.764s6.969 4.462 9.927 8.623z"/>
    <path fill="#353B6D" d="M112.816 38.966c-2.206-5.414-12.083-2.356-17.147-4.763-.1 8.072.15 17.448 1.555 22.461 4.462 15.843 8.122 47.479 8.122 47.479s-2.657 8.523-4.914 15.342c-.651 2.056-1.002 3.81-1.253 5.365 1.805-1.705 3.66-3.259 5.565-4.663 3.61-2.657 7.521-5.064 8.273-9.827.351-2.256.25-4.562.501-6.818.201-1.906.852-3.71 1.354-5.566.702-2.506 1.303-5.013 1.403-7.62.101-2.557-.501-5.014-1.153-7.47-1.153-4.513-2.456-9.025-3.509-13.587-.953-4.262 3.66-9.025 3.509-13.387-.2-4.211-.702-12.985-2.306-16.946z"/>
    <path fill="#000100" d="M121.74 162.903s.201-1.855.602-4.863c-8.624-3.109-17.447-5.665-25.92-9.175.25 2.757-.903 5.716-1.154 8.874 0 0 20.105 8.022 29.129 12.233 9.025 4.212 10.329 5.816 7.32 1.655-2.958-4.162-9.977-8.724-9.977-8.724z"/>
    <path fill="#5A63AF" d="M115.824 38.966s-7.269 13.788-15.041 28.578c-5.665 10.78-11.681 21.358-14.439 25.77-6.417 10.177-6.718 8.824-17.848 7.721-11.18-1.103-59.813-10.278-59.813-10.278C3.018 102.589-.792 104.945.21 101.436c1.003-3.51 11.832-38.705 11.832-38.705 3.36.3 4.663 2.908 12.434 1.855 7.771-1.053 11.732 6.768 18.55 6.317 6.82-.451 9.877-4.462 14.039-.652 4.161 3.76 11.43 5.365 11.43 5.365s8.173-17.849 16.044-34.343c4.362-9.175 8.624-17.9 11.331-22.963.3-.601.602-1.153.902-1.604.452-.802.853-1.504 1.154-1.955l1.403 2.306 9.476 15.191 7.019 6.718z"/>
    <path fill="#000100" d="M14.048 91.81c.551-2.557 1.103-5.114 1.704-7.62 1.504-6.418 3.66-12.835 4.914-19.303-4.613-.1-5.966-1.855-8.674-2.106 0 0-10.83 35.246-11.832 38.705-1.003 3.51 2.808 1.153 8.473-10.679 0 0 2.056.351 5.415 1.003zM70.4 77.37c-.3-.501-.751-.802-1.152-1.203-.451-.451-1.203.2-.752.702.3.35.752.602 1.003 1.003.35.501 1.253.05.902-.502z"/>
    <path fill="#353B6D" d="M124.748 11.391c.853 2.908 2.557 8.624 4.362 14.64-.05.05-.1.05-.15.05-5.214 2.457-10.128 4.111-15.793 5.265-1.454.3-2.958.601-4.412.902-3.861.802-7.771 1.705-11.431 3.008-.401.15-.852.301-1.254.451-.1.05-.25.1-.4.2-1.154.552-2.357 1.154-3.51 1.706-2.206 1.103-4.362 2.206-6.618 3.208-.351.15-.702.301-1.003.401 4.362-9.175 8.624-17.898 11.331-22.962 0-1.304.2-1.604.902-1.604.452-.802.853-1.504 1.153-1.956l1.404 2.307c2.357.15 6.167-.1 12.234-3.109 4.462-2.156 7.67-1.053 13.185-2.507z"/>
    <path fill="#000100" d="M106.85 101.386c-.251.401-.602.702-.903 1.003-.451.451.251 1.153.702.702.401-.401.802-.752 1.103-1.254.301-.501-.551-1.003-.902-.451zM125.3 47.99c-.201-.6-.201-1.253-.151-1.854.051-.652-.952-.652-1.002 0-.05.702-.05 1.454.2 2.156.201.601 1.153.35.953-.301z"/>
    <path fill="#fff" stroke="#000" stroke-width=".501" d="M155.754 8.749h.001c4.606 2.729 9.225 5.783 12.885 8.43 1.83 1.323 3.418 2.543 4.645 3.568 1.182.988 2.009 1.78 2.399 2.304v.014l-.014.28c-.015.242-.043.589-.094 1.004-.102.833-.297 1.937-.666 3.031-.369 1.096-.908 2.166-1.688 2.945-.773.773-1.788 1.269-3.142 1.221-.488-.017-1.352-.194-2.529-.51-1.168-.313-2.624-.756-4.282-1.294-3.316-1.075-7.433-2.524-11.675-4.06-4.39-1.588-8.917-3.27-12.822-4.72-3.635-1.35-6.731-2.5-8.676-3.189l-.047-.017-.05.003-4.29.242c-7.263.408-19.733 1.11-30.004 1.713-2.012.111-3.918.229-5.689.338-3.045.188-5.694.35-7.816.414-1.678.05-3.01.037-3.936-.073-.465-.056-.81-.134-1.042-.232-.237-.1-.297-.194-.309-.248-.053-.266-.026-.493.058-.692.086-.203.237-.391.454-.567.44-.357 1.115-.638 1.925-.867.804-.228 1.712-.399 2.599-.55.213-.037.425-.072.635-.107.655-.11 1.28-.214 1.808-.33l-.098-.491c-1.525.275-3.802.61-5.723.629-.964.01-1.817-.062-2.437-.249-.63-.19-.929-.47-.972-.816-.106-.848.527-1.572 1.38-2.128.824-.538 1.75-.847 2.053-.9.007 0 .013-.002.02-.003l-.08-.495-.02.003c-.316.05-1.406.177-2.374.059-.498-.062-.928-.184-1.208-.385-.136-.097-.23-.21-.285-.338-.054-.129-.076-.291-.04-.502v-.002c.057-.338.358-.685.927-1.026.559-.334 1.32-.63 2.182-.887 1.724-.515 3.802-.864 5.354-1.089l-.053-.498c-1.426.1-3.539.186-5.258 0-.863-.092-1.602-.252-2.102-.497-.249-.122-.422-.257-.526-.4-.1-.137-.144-.29-.12-.476v-.001c.01-.078.058-.185.192-.32.133-.135.332-.28.602-.433.54-.305 1.326-.618 2.33-.93 2.003-.626 4.825-1.234 8.16-1.772C92.964 1.777 101.65.988 109.86.913c8.358-.044 13.779-.317 18.453-.552l2.012-.1c2.658-.123 7.132.866 11.904 2.463 4.763 1.594 9.784 3.78 13.525 6.025z"/>
    <path fill="#000100" d="M158.289 9.937c-1.804 3.36-3.409 6.869-5.214 10.178-.952 1.705-2.206 4.562-3.158 6.317 8.774 3.259 17.898 5.264 20.205 5.315 5.715.2 5.866-8.825 5.866-8.825-1.505-1.955-9.376-7.77-17.699-12.985zM131.918 16.706c-.351.25-.702.451-1.153.551-.301.1-.201.552.15.502.501-.15.953-.351 1.354-.702.25-.2-.1-.552-.351-.351zM132.57 1.615c-.452-.301-.953-.451-1.504-.502-.051 0-.051-.05-.101-.05-.601-.1-1.153-.05-1.754.2-.402.151-.502.653-.101.903.903.602 2.156.401 3.209.351.501 0 .652-.601.251-.902z"/>
    <path fill="#000" d="M78.974 18.16c-.3-.05-.3.45 0 .5.3.051.401.252.3.552-.1.301-.35.502-.65.602-.302.05-.201.552.15.501 1.052-.3 1.554-2.005.2-2.155zM77.019 13.898c-.301.05-.2.552.15.502 1.203-.2.853 1.403-.05 1.504-.3.05-.3.551 0 .501.752-.05 1.304-.702 1.354-1.404 0-.902-.702-1.203-1.454-1.103zM76.517 10.138c-.3-.1-.45.401-.15.502.652.15.902 1.353.15 1.504-.3.05-.2.551.15.501 1.254-.3 1.004-2.256-.15-2.507zM77.77 6.027c-.4-.401-1.002-.451-1.553-.401-.301.05-.301.551 0 .501.4-.05.902-.05 1.203.251.35.3.35.802.3 1.253-.05.301.452.301.502 0 .05-.601-.05-1.203-.451-1.604z"/>
    <path fill="#5A63AF" d="M154.529 26.934c-.802-.301-1.654-.502-2.406-.953-.552-.3-1.053.551-.502.852.803.452 1.755.702 2.607 1.053.652.25.903-.702.301-.952z"/>
    <path fill="#fff" stroke="#000" stroke-width=".501" d="M182.704 44.73l-13.583-.098h-.002c-2.743 0-4.779-2.651-4.07-5.3h.001c.568-2.132 2.602-3.457 4.783-3.126 0 0 0 0 0 0l12.824 2.022.047 6.502z"/>
    <path fill="#000100" d="M222.013 18.41c-2.106 1.354-3.309 3.31-5.164 4.864-1.454 1.253-3.41 1.704-5.164.902-1.454-.652-2.256-2.206-3.71-2.858-3.259-1.504-6.919.2-9.727 2.357-.551.802-1.053 1.554-1.504 2.406-.702 1.304-1.253 2.708-2.106 3.91-1.253 1.756-2.807 2.658-4.763 3.46-1.454.602-2.907 1.003-2.055 3.008 1.354-.2 2.958.15 4.011.652 1.404.602 2.356 1.805 3.66 2.457.601.3 1.203.2 1.754.451 2.507 1.003 2.206 1.203 2.006 3.31-.1.952-.251 1.854-.301 2.807-.1 2.908.552 8.072 4.713 6.969 5.114-1.304 6.618-8.072 8.222-12.234.552-1.454 1.153-3.158 2.206-4.361 1.454-1.655 2.908-1.204 4.813-1.254 1.905 0 3.51-.752 4.863-2.106 1.505-1.453 2.457-3.359 3.36-5.214 1.103-2.206 2.256-4.662 2.206-7.17-.201-4.562-4.362-4.21-7.32-2.356z"/>
    <path fill="#fff" stroke="#000" stroke-width=".501" d="M187.806 35.73h0l.004.002c1.954.953 2.63 2.715 3.027 4.105.434 1.541.24 3.325-.576 4.717-1.299 2.164-4.064 3.437-6.555 3.487-2.613-.001-4.49-1.898-5.17-4.378-.689-2.51-.375-5.444 1.671-7.11h0l.002-.001c2.026-1.688 5.327-1.981 7.597-.822z"/>
    <path fill="#000100" d="M179.096 34.554c-1.103.903-2.156 3.159-1.003 5.164.652.452 1.504.602 2.256.452.602-.1 1.204-.2 1.805-.251 1.805-.1 2.958 1.354 4.462 2.156 3.761-1.404 3.159 1.253 4.212 1.805.501-1.304.602-2.758.251-4.162-.402-1.403-1.103-3.258-3.159-4.261-2.407-1.203-6.718-2.607-8.824-.903z"/>
    <path fill="#fff" d="M182.355 37.212c-2.156.1-3.209 2.807-2.858 3.91l6.167 1.153c.451-2.958-.752-5.164-3.309-5.063z"/>
    <path fill="#000100" d="M186.566 48.291c0-.551.151-1.102.552-1.503.2-.251-.15-.552-.401-.301-.451.501-.652 1.203-.652 1.855 0 .3.501.25.501-.05zM186.115 44.481l-.702.251c-.301.1-.15.602.151.452l.702-.251c.35-.1.15-.602-.151-.452zM182.104 41.523c.301-.35.652-.602 1.103-.602.301 0 .251-.5-.05-.5-.551.05-1.053.35-1.404.801-.25.2.151.552.351.301z"/>
    <path fill="#E68802" fill-rule="evenodd" d="M191.201 106.943c7.58-.026 14.788 4.151 17.149 11.35 2.379 7.253-.855 15.001-7.038 19.479-6.158 4.46-14.457 5.001-20.628.559-6.247-4.497-8.712-12.622-6.267-19.919 2.38-7.102 9.292-11.443 16.784-11.469z" clip-rule="evenodd"/>
    <path fill="#fff" fill-rule="evenodd" d="M186.92 117.324l-.011-.003c-.015.015-.026.025-.025.026.001.001.011-.006.036-.023zm.095.023l-.095-.023.128-.089-.033.112zm0 0c.219.053.438.1.656.146.254.053.508.107.762.171.254.065.508.118.762.172.254.054.507.107.761.172.139.042.185 0 .231-.129.093-.365.185-.719.277-1.073.093-.354.185-.708.277-1.072.046-.129.093-.172.231-.129.462.129.877.214 1.339.3.138.043.138.086.092.172-.092.343-.185.697-.277 1.051-.092.354-.185.708-.277 1.051 0 .043 0 .086-.046.172.185.043.381.086.577.128.196.043.392.086.577.129.031 0 .062-.038.092-.076.016-.019.031-.038.047-.053.138-.557.277-1.072.461-1.63l.139-.515c0-.086.046-.128.138-.086.263.074.526.133.797.194.205.047.416.094.634.15.023 0 .035.01.047.021.011.011.023.022.046.022-.139.557-.277 1.072-.416 1.587-.046.215-.092.429-.184.644-.047.128 0 .171.138.214l1.523.644c.462.257.878.6 1.201 1.029.415.644.461 1.33.277 2.017-.139.472-.323.901-.693 1.244-.277.257-.646.429-1.015.558-.019 0-.039.007-.061.016-.032.012-.07.027-.124.027.092.064.185.118.277.171.092.054.185.107.277.172.554.386.923.858 1.108 1.458.092.472.046.987-.092 1.459-.185.601-.416 1.116-.831 1.588-.508.557-1.155.858-1.893.943-.97.129-1.893.043-2.816-.085-.139-.043-.231 0-.277.128-.093.344-.185.698-.277 1.051-.093.354-.185.708-.277 1.052l-.006.021c-.041.154-.05.189-.271.107-.208-.043-.427-.096-.646-.15-.22-.054-.439-.107-.647-.15-.138-.043-.138-.086-.092-.172.185-.729.369-1.458.6-2.145 0-.024.004-.044.007-.063.008-.047.013-.077-.053-.108-.37-.086-.739-.172-1.154-.258-.046.193-.104.386-.162.579-.058.193-.115.386-.161.58-.047.193-.104.386-.162.579-.058.193-.115.386-.162.579l-.014.029c-.034.066-.048.095-.17.057-.462-.129-.924-.215-1.385-.301-.139-.042-.139-.085-.093-.171.185-.73.37-1.459.601-2.145 0-.018.008-.036.017-.057.013-.029.029-.065.029-.115-1.062-.257-2.124-.515-3.232-.772.046-.086.081-.161.116-.236.034-.075.069-.15.115-.236.185-.386.369-.772.508-1.116.046-.128.092-.128.231-.128.323.086.692.171 1.015.214.37.086.647-.086.693-.386.6-2.188 1.2-4.376 1.754-6.607.092-.343-.138-.729-.554-.858-.334-.103-.668-.179-.978-.25l-.222-.05c-.093 0-.139-.043-.093-.129.07-.236.139-.483.208-.729l.175-.618zm5.941 6.809c.092 0 .321-.051.504-.102.871-.204 1.329-1.329.871-2.197-.229-.46-.642-.767-1.054-.971-.514-.246-1.028-.393-1.566-.547-.133-.039-.268-.077-.405-.118-.137-.051-.183 0-.229.154-.229 1.073-.458 2.095-.733 3.168-.046.102 0 .153.092.204.091.026.171.051.252.077.08.026.16.051.252.077.189.028.37.06.55.091.475.084.934.164 1.466.164zm-3.328 4.088c.039 0 .079.045.079.045l.296.088c.538.161 1.099.329 1.66.367.469.045.9.045 1.33-.136.743-.273 1.056-1.411.626-2.138-.196-.364-.509-.592-.822-.819-.683-.442-1.477-.626-2.239-.803l-.069-.016c-.107-.041-.116-.007-.147.103l-.009.034c-.04.227-.088.443-.137.659-.049.216-.098.432-.137.66-.089.363-.166.725-.244 1.097-.059.28-.119.565-.187.859z" clip-rule="evenodd"/>
    <path fill="#fff" d="M175.486 107.151c2.457.201 10.328-1.103 10.328-1.103s4.011 6.568 7.421 4.212c1.704-1.153-3.761-8.774-3.761-8.774s-4.662-4.813-10.027-3.36c-1.053.251-.401 1.003-.902 1.705-2.006 2.858-6.568 7.019-3.059 7.32z"/>
    <path stroke="#000" stroke-width=".501" d="M175.486 107.151c2.457.201 10.328-1.103 10.328-1.103s4.011 6.568 7.421 4.212c1.704-1.153-3.761-8.774-3.761-8.774s-4.662-4.813-10.027-3.36"/>
    <path fill="#000" d="M191.079 109.909c-1.705-.452-.903-2.106-.151-3.109.201-.25-.15-.601-.351-.351-1.003 1.304-1.755 3.359.351 3.911.351.1.451-.351.151-.451z"/>
    <path fill="#fff" d="M86.044 24.427c-1.153-.852-.5-2.507 4.513-6.518l6.016.502s-8.523 7.52-10.528 6.016z"/>
    <path fill="#FF5C82" d="M88.448 22.64c-.401-.1-.853-.1-1.204.15-.35.25-.501.652-.501 1.103 0 .3.501.3.501 0 0-.25.05-.552.301-.702.25-.15.501-.1.802-.1.301.1.452-.401.1-.451z"/>
    <path stroke="#000" stroke-width=".501" d="M90.255 17.91c-5.014 4.01-5.666 5.665-4.512 6.518 2.005 1.504 10.528-6.017 10.528-6.017"/>
    <path fill="#E68802" fill-rule="evenodd" d="M186.707 155.293l-.707-.707-1.414 1.414.707.707 5 5c.39.391 1.024.391 1.414 0l5-5 .707-.707-1.414-1.414-.707.707-4.293 4.293-4.293-4.293zm0 7l-.707-.707-1.414 1.414.707.707 5 5c.39.391 1.024.391 1.414 0l5-5 .707-.707-1.414-1.414-.707.707-4.293 4.293-4.293-4.293z" clip-rule="evenodd"/>
    <path stroke="#5233D4" stroke-linecap="square" stroke-linejoin="round" stroke-width="2" d="M186 377l5 5 5-5M186 370l5 5 5-5"/>
    <defs>
        <filter id="filter0_d" width="66" height="66" x="94" y="281" color-interpolation-filters="sRGB" filterUnits="userSpaceOnUse">
            <feFlood flood-opacity="0" result="BackgroundImageFix"/>
            <feColorMatrix in="SourceAlpha" values="0 0 0 0 0 0 0 0 0 0 0 0 0 0 0 0 0 0 127 0"/>
            <feOffset dy="8"/>
            <feGaussianBlur stdDeviation="6"/>
            <feColorMatrix values="0 0 0 0 0.0901961 0 0 0 0 0.121569 0 0 0 0 0.27451 0 0 0 0.16 0"/>
            <feBlend in2="BackgroundImageFix" result="effect1_dropShadow"/>
            <feBlend in="SourceGraphic" in2="effect1_dropShadow" result="shape"/>
        </filter>
        <filter id="filter1_d" width="66" height="66" x="158" y="281" color-interpolation-filters="sRGB" filterUnits="userSpaceOnUse">
            <feFlood flood-opacity="0" result="BackgroundImageFix"/>
            <feColorMatrix in="SourceAlpha" values="0 0 0 0 0 0 0 0 0 0 0 0 0 0 0 0 0 0 127 0"/>
            <feOffset dy="8"/>
            <feGaussianBlur stdDeviation="6"/>
            <feColorMatrix values="0 0 0 0 0.0901961 0 0 0 0 0.121569 0 0 0 0 0.27451 0 0 0 0.16 0"/>
            <feBlend in2="BackgroundImageFix" result="effect1_dropShadow"/>
            <feBlend in="SourceGraphic" in2="effect1_dropShadow" result="shape"/>
        </filter>
        <filter id="filter2_d" width="66" height="66" x="30" y="281" color-interpolation-filters="sRGB" filterUnits="userSpaceOnUse">
            <feFlood flood-opacity="0" result="BackgroundImageFix"/>
            <feColorMatrix in="SourceAlpha" values="0 0 0 0 0 0 0 0 0 0 0 0 0 0 0 0 0 0 127 0"/>
            <feOffset dy="8"/>
            <feGaussianBlur stdDeviation="6"/>
            <feColorMatrix values="0 0 0 0 0.0901961 0 0 0 0 0.121569 0 0 0 0 0.27451 0 0 0 0.16 0"/>
            <feBlend in2="BackgroundImageFix" result="effect1_dropShadow"/>
            <feBlend in="SourceGraphic" in2="effect1_dropShadow" result="shape"/>
        </filter>
        <filter id="filter3_d" width="66" height="66" x="286" y="281" color-interpolation-filters="sRGB" filterUnits="userSpaceOnUse">
            <feFlood flood-opacity="0" result="BackgroundImageFix"/>
            <feColorMatrix in="SourceAlpha" values="0 0 0 0 0 0 0 0 0 0 0 0 0 0 0 0 0 0 127 0"/>
            <feOffset dy="8"/>
            <feGaussianBlur stdDeviation="6"/>
            <feColorMatrix values="0 0 0 0 0.0901961 0 0 0 0 0.121569 0 0 0 0 0.27451 0 0 0 0.16 0"/>
            <feBlend in2="BackgroundImageFix" result="effect1_dropShadow"/>
            <feBlend in="SourceGraphic" in2="effect1_dropShadow" result="shape"/>
        </filter>
        <filter id="filter4_d" width="66" height="66" x="222" y="281" color-interpolation-filters="sRGB" filterUnits="userSpaceOnUse">
            <feFlood flood-opacity="0" result="BackgroundImageFix"/>
            <feColorMatrix in="SourceAlpha" values="0 0 0 0 0 0 0 0 0 0 0 0 0 0 0 0 0 0 127 0"/>
            <feOffset dy="8"/>
            <feGaussianBlur stdDeviation="6"/>
            <feColorMatrix values="0 0 0 0 0.0901961 0 0 0 0 0.121569 0 0 0 0 0.27451 0 0 0 0.16 0"/>
            <feBlend in2="BackgroundImageFix" result="effect1_dropShadow"/>
            <feBlend in="SourceGraphic" in2="effect1_dropShadow" result="shape"/>
        </filter>
        <linearGradient id="paint0_linear" x1="191.001" x2="191.001" y1="237" y2="277" gradientUnits="userSpaceOnUse">
            <stop stop-color="#fff"/>
            <stop offset="1" stop-color="#fff" stop-opacity=".05"/>
        </linearGradient>
    </defs>
</svg>
